<svg id="Layer_1" data-name="Layer 1" xmlns="http://www.w3.org/2000/svg" viewBox="0 0 650.62 658.87"><defs><style>.cls-1{fill:#5d2a04;}.cls-1,.cls-2{fill-rule:evenodd;}.cls-2{fill:#ebe0b3;}</style></defs><path class="cls-1" d="M658.11,54.1C576,57.45,501.53,91.5,446.64,153c-49.9,55.85-78.95,129.64-80.74,204.49A276.88,276.88,0,0,0,481.56,589.08C539.71,631.11,610,649,681.21,648.3c85.07-.87,162.68-34.77,218.85-99.08a305.3,305.3,0,0,0,40.64-59.63A317.5,317.5,0,0,0,955,458.08,308.78,308.78,0,0,0,975.92,337a269,269,0,0,0-6.14-49.13c-14.59-66.57-53.46-126.22-106.84-168.3a304.7,304.7,0,0,0-93-50A314.71,314.71,0,0,0,658.11,54.1Zm-1.88-15.74A321.91,321.91,0,0,1,773.31,54.91a317.1,317.1,0,0,1,97.42,53.76c56,45.28,96.72,109.43,112,181.06a296.64,296.64,0,0,1,6.48,53A334.77,334.77,0,0,1,983.36,416c-10.92,57-36.32,111-73.6,154.72-58.88,69.14-140.4,105.73-229.62,106.66-74.35.78-147.75-18.55-208.48-63.56A300.13,300.13,0,0,1,361.88,455.53,305.12,305.12,0,0,1,350.05,364c1.87-80.33,32.26-159.42,84.46-219.35C492,78.65,570.14,42,656.23,38.36Z" transform="translate(-349.97 -38.07)"/><path class="cls-2" d="M465.68,198.22c33.81-10.05,41.07-42.61,67.92-55.17,5.62-2.64,14.17-2.11,21.71-2.85l-5.26-8.11c-3.88-6-11.77-7.8-21.2-1.31-22.32,15.37-53.62,58.48-63.17,67.44Zm325.6,37.24c-7.89,9.47-.36,32.57-6.06,45.46C780.84,290.83,767,291,767,300.4c0,7.16,16,7.36,22.09,7.36,18,0,11.06,27.51,29.44,25.12,11.49-1.5,3.72-26.32,16.45-30.75,5.29-1.83,12.09-11.6,12.56-17.75,1.19-15.59-28.74-17.68-37.23-28.14-2.43-3-17.31-29.05-19.06-20.78ZM518.5,173.54c-38.63,14-7.86,21.52,6.5,28.58,13.84,6.8,12.12,21,12.12,36.8,0,13.5,7.46,26.31,20.35,13.42,5.28-5.27,1.82-8.69,3.9-14.72,3.43-10,10-8.8,10-21.65,0-7.4-8.78-6.53-11.7-13-20.65-45.65-8-41.42-41.13-29.44ZM432.77,277c-3.91,7.66-4.89,23.68,3.46,29.45,18.29,12.6,34.65,5.83,34.65-13,0-14.88,37.66-11.06,37.66-23.38,0-17.92-19.86-8.18-29-17.32-10.16-10.17-.41-29.42-7.35-36.37C454.4,198.63,436.35,270,432.77,277Zm1.3,107c-1.74,24.41-1,44.66,7.8,67.11,4.26,10.93,3.6,27.7,11.68,39.4,9.39,13.6,13.89,13.88,28.59,21.22,16.81,8.41,15.15-15.65,15.15-24.25,0-7.72,10.38-10.18,10.38-15.59,0-20.29-28.27-11.7-36.79-32.47-5.65-13.74-6.5-19.46-6.5-34.21,0-5.47,22-49.57-4.33-35.07-5.89,3.25-3.58,15.75-15.15,10-5.84-2.91-10.83-6.18-10.83,3.9ZM580,417.31c0,11.6-9.46,29.44-18.62,35.07-7.64,4.7-4,19.05,2.6,19.05,19,0,13.51,6.58,22.51,15.59,11.68,11.69,16-17.83,16-22.08,0-12.36,57.85,3.69,61.49.43,8.35-7.48,10.42-18-1.73-23.38-33.91-14.94-41.93-13.18-58-48.06-6.71-14.55-5.68-18.17-18.18-26-26.19-16.38-6.06,41.71-6.06,49.36ZM553.58,564.09c33,33,111.07,54.31,153.27,27.93,21.21-13.26-13.42-16.6-13.42-28.8,0-23.07-17.69-17.59-31.17-12.12-11.56,4.69-33.59,4.13-42-2.6-15.59-12.46-22.67-19.67-35.51.43-7.49,11.73-30.31-2.54-31.17,15.16Zm228-55.64c-19.48-.22-3.83,39.74-12.78,49.15-5.16,5.43-27,22.08-3,22.08,22.66,0,36.62-2.14,54.56-15.59,7.73-5.79,9.53-15.08,9.53-24.25,0-11.05-11.74-9.89-20.36-13.42-6.4-2.63-7.85-18.19-14.72-18.19-3.33,0-16.57.44-13.2.22ZM700.35,350.63c0,13.91,5.2,23.2,5.2,38.1,0,10.61-7.36,11.93-7.36,19.92,0,5.4,16.92,2.18,20.35.43,11.93-6.09,60.35,8.55,62.35.87,2.53-9.67-1.38-19.05-13.43-19.05-21.83,0-36.24-17.95-43.72-34.64-2.61-5.82-24.25-16-23.39-5.63ZM855.8,392.84c-2.17,9.78-1.73,21.45-1.73,32.69,0,11.56-29,29.21-1.73,35.51,16.81,3.88,23.41,10.8,40.26-.43,8.23-5.49,19.31-23.77,19.92-33.77.29-4.88,2.25-21.76-.87-24.25-9.81-7.85-19.69,2.06-32.47-4.33-4-2-7.9-5.57-12.56-7.36-7.14-2.75-6.12,1.46-10.82,1.94Zm38.54-164.31C885,242.09,859,287.65,876.58,300.84c8.57,6.42,23.38,10.7,23.38,22.94,0,14.18-2.48,38.17,17.32,26.42,9.64-5.73-4.6-62.08-5.63-71-1.41-12.31-5.19-20.39-5.19-34.21,0-7.26-4.77-18.18-12.12-16.45ZM617.65,116.82c13.5,25.06,24.25,16.59,24.25,51.09,0,12.22-24.61,17.59-33.77,24.25-20.89,15.19,22.62,18.08,26,19.05,36.07,10.42,34.87,54.83,10.82,76.2-12,10.71-29.49,35.55-7.36,48.06,8.27,4.68,23.24-4,36-1.61,35.12,6.53,86.58-17.62,32.38-27.83-24.57-4.62-33.52-93.1-20.79-97.42,36.14-12.26-16.45-23.77-16.45-48.06C668.75,138.87,736.1,103,690,103c-6.1,0-11,10.4-21.66,10.4-11.26,0-24.86-3-33.33-3-7.62,0-16.45,5.63-17.33,6.5ZM539.23,532.65c-19.68-4.61-26.51-28.1-8.15-39.46,18.67-11.56,52,21.9,78.5,6.92,26.32-14.87-3-33.33,46.76-16.16,51.82,17.89-7.23-64.16,82-46.76,18.79,3.67,59.22,7,63.5-14.43,9.84-49.23,3-18.18-15-46.18-31.73-49.37,41.47-8.43,59.45-20.2,11.28-7.38,1.93-25.4,17.9-25.4,15.46,0,13.85,16.77,13.85,27.71,0,15.16,30,6,30,23.67C908,404,869.3,376,854.34,376c-20.69,0-16.61,37.95-25.4,53.1-14.2,24.49-23.89,31.7-5.2,57.15,38.73,52.71-65.54-12.8-73.3-1.16-11.7,17.55,7.82,47.92-27.71,47.92-19.5,0-48.37-26.72-71-11-20.47,14.23-15.22,18.66-46.76,2.89-32.13-16.07-41,13.51-65.74,7.71ZM714.65,195.91c12.89,30.44-8.66,28.5-8.66,58.88,0,27.91,32.22,39.6,52,22.51,17.07-14.8,6-27.58,16.16-40.41,35.23-44.41,46.58,13.85,75.62,13.85,20.24,0,33-33.34,21.36-50.22-18.18-26.26-46-4.7-62.92-34.05-18-31.09-15.54-57.15-61.19-57.15-17.31,0-1.1,34.63-13.85,34.63-52,0-37.63,6.73-18.47,52ZM572.06,131.83c0,5.18,7.16,30,4,32.33-15.24,11.56-13.33,17.77-5.77,34.63,4.25,9.47,26.7-22,40.41-26,19.36-5.63,13-15.87,7.51-30.6-7.39-19.84-46.19-45.7-46.19-10.39ZM441.61,328.67c-29.57,0-20.39,43.09,19,25.4,35.64-16,27.14,34.76,27.14,54.26,0,18.11,28.93,31.63,42.72,38.68,58.16,29.72-17.4-148.56,45.59-105.06,8.71,6,37.73,24.66,38.68,6.35,1.29-24.9-11.7-28.84-16.74-48.49-5.11-19.95,28.86-24.52,28.86-49.64,0-27.71-29.59-42.77-39.83-14.44-16.78,46.47-5.92,72.62-52,35.22-6-4.88-18.63,8.36-19,11.54-6.6,50.67-30.79,46.18-74.46,46.18Zm220.5,86.59c-11.5,0-19.17-3.72-28.28-11-26-20.68-2.88-30.28-2.88-51.38,0-5.27-8.57-12.12,4-12.12,14.67,0,7.44,7.87,15.58,14.44,13.1,10.55,23.66-16.6,30.6-1.16,4.51,10.06,2.88,22,2.88,34.06,0,9.24,14.89,39.83-1.73,39.83-10.24,0-10.68-12.12-20.21-12.7Zm71.59-64.08c-2.82-2.81-10.26-10.51-9.24-14.43,1.22-4.68,12.7-3.79,12.7-11,0-7,5.34-6.93,11-6.93,2.37,0,6.27-.67,8.08.57,3.56,2.47,2.31,5.39,6.92,6.36,9.32,1.95,18.48-3,18.48,9.23,0,5.29-10,4.2-13.86,5.2-8,2.08,2.89,20.63,2.89,24.24,0,21.49-31-7.35-36.94-13.28Z" transform="translate(-349.97 -38.07)"/><path class="cls-1" d="M682.33,607.52c45.32-1.84,92.76-4.75,131.44-31.33,9.51-6.54,25.12-16.28,31.43-25.79s12.54-19.27,20.2-27.84c24.45-27.38,50.82-60.61,62.46-95.82,3.93-11.89,1.69-29.62.15-41.93-2-16.22-1.66-33.52-1.27-49.86.79-32.83-2.31-95.33-19.53-123.26-16-26-47.17-48.22-71.67-65.93-27.86-20.13-51.27-41-84-53.37-30.18-11.36-64.85.7-96.23,1-34.12.35-73.09,2.2-104.61,16.28a93.88,93.88,0,0,0-16.11,9.3c-23,16.38-43.27,39.78-61.79,61-21.45,24.56-48.36,55.25-59.26,86.29-10.3,29.32-2.19,66.25-1.22,96.93.89,28,5.86,56.54,10.72,84.18,2.53,14.41,6,31.88,13.84,44.4a61.57,61.57,0,0,0,5.15,7.06c10,11.92,24.3,21.42,37.12,30,9.42,6.34,18.87,12.62,27.78,19.66,17.67,13.93,33.71,31.31,52.57,43.42a83,83,0,0,0,18.69,9.14c30.55,10.11,72.19,7.74,104.17,6.43ZM657.48,84C610,86,554.72,87.51,513.91,115.56c-19.25,13.24-29.66,38.82-45.15,56.16-25.19,28.19-51.78,62.09-63.82,98.51-4.72,14.31-2.64,32.79-.8,47.51,1.74,13.95,1.45,32.06,1.12,46.13-.85,35.44,2.66,98,21.26,128.2,16.85,27.34,48,49.87,73.72,68.46,28.89,20.88,50.68,40.77,85.23,53.78,34,12.8,66.85.33,99.07,0,35.61-.36,75-2.52,107.76-17.15a106.28,106.28,0,0,0,18.3-10.55c23.17-16.5,44.07-40.34,62.7-61.67,22.29-25.52,49.15-56.54,60.51-88.86,10.89-31,7-67.51,5.93-99.75-.89-28-9.68-56.37-14.52-83.95-2.84-16.17-6.77-34.57-15.56-48.65a77.5,77.5,0,0,0-6.25-8.59c-10.77-12.88-25.48-22.79-39.31-32.09-8.81-5.93-17.68-11.82-26-18.4-17.58-13.87-33.46-31-52.27-43a96.05,96.05,0,0,0-21.65-10.56c-31.69-10.48-73.55-8.37-106.67-7Z" transform="translate(-349.97 -38.07)"/><path class="cls-1" d="M599.18,365.67c49.58-2,86.68,36.54,88,78.27,1.34,42.34-30.19,85.66-81.58,86.18-55.35.57-88.33-38.88-87.33-80.44,1-41.07,31.7-82,80.9-84Zm.45,10.12a76.47,76.47,0,0,1,26,3.4,49.77,49.77,0,0,1,10.66,4.36c2.5,1.53,4.67,3.62,5.06,6.67.5,3.84-2.17,7.24-4.48,10-2.95,3.53-6,6.81-8.66,10.58-1.82,2.54-3.61,5.13-5.34,7.75-9.93,15.08-20.17,21.09-12.48-1.06,5.17-14.87-19-14.87-13.87,0,3.05,8.74,1.51,25.87-7.68,11.33-4.84-7.67-8.38-17.55-11.15-26.16a65.81,65.81,0,0,1-2.94-11.77c-.37-3.15-.16-6.41,1.74-9.07,2.12-3,5.62-4.18,9.07-4.84a99.74,99.74,0,0,1,14-1.2ZM583,488.35c-2.14-.15-5,.08-5.86,2.39a5.37,5.37,0,0,0-.08,3.27,5.44,5.44,0,0,0,1.7,2.79c1.93,1.56,4.49.35,6.26-.85,5.74-3.89,5.77-4.8,5.71-5.58s-.17-1.47-7.73-2Zm-30.87-13.06c-2.14-.16-5,.07-5.85,2.39a5.34,5.34,0,0,0-.09,3.26,5.45,5.45,0,0,0,1.71,2.79c1.93,1.56,4.49.35,6.27-.84,5.73-3.89,5.75-4.81,5.71-5.59s-.18-1.46-7.75-2Zm-1.85-19.59c-2.07-.57-4.89-.89-6.21,1.2a5.8,5.8,0,0,0,.4,6.26c1.59,1.9,4.34,1.22,6.31.39,6.39-2.7,6.58-3.58,6.69-4.36s.12-1.47-7.19-3.49ZM545.7,467c-2.14-.16-5,.08-5.85,2.39a5.75,5.75,0,0,0,1.62,6.06c1.93,1.55,4.5.35,6.26-.85,5.74-3.89,5.76-4.8,5.71-5.58s-.17-1.47-7.74-2Zm-.14-38.15c-2.13-.16-5,.07-5.85,2.38a5.48,5.48,0,0,0-.09,3.28,5.6,5.6,0,0,0,1.7,2.78c1.94,1.56,4.5.35,6.27-.85,5.73-3.89,5.77-4.8,5.72-5.58s-.18-1.46-7.75-2Zm20.37-19.14c.29-2.12.22-5-2-6a5.76,5.76,0,0,0-6.14,1.26c-1.67,1.83-.62,4.47.48,6.3,3.53,6,4.43,6,5.22,6s1.47-.09,2.48-7.61Zm-10,2.59c-.62-2.05-1.86-4.6-4.34-4.6a5.42,5.42,0,0,0-3.08,1.1,5.33,5.33,0,0,0-2,2.6c-.77,2.36,1.29,4.31,3,5.53,5.71,3.95,6.55,3.64,7.28,3.31s1.29-.68-.92-7.94ZM549,419.8c-1.76-1.22-4.31-2.45-6.26-.91a5.47,5.47,0,0,0-1.73,2.77,5.52,5.52,0,0,0,0,3.27c.88,2.32,3.7,2.58,5.82,2.45,6.93-.44,7.41-1.21,7.77-1.92s.59-1.34-5.65-5.66Zm44.66-20c-.57-2.07-1.75-4.65-4.22-4.71a5.53,5.53,0,0,0-3.11,1,5.43,5.43,0,0,0-2,2.55c-.82,2.35,1.17,4.35,2.91,5.61,5.6,4.09,6.45,3.81,7.18,3.49s1.32-.66-.72-8Zm29.07,4.87c2.21-.41,5-1.4,5.31-4a6,6,0,0,0-3.26-5.72c-2.37-1.07-4.66.84-6.14,2.53-4.79,5.48-4.57,6.41-4.31,7.2s.57,1.44,8.4,0Zm-9-4.94c1.84-1.29,4-3.36,3.17-5.84a5.78,5.78,0,0,0-2.1-2.71,5.68,5.68,0,0,0-3.25-1.13c-2.6,0-3.88,2.69-4.52,4.85-2.09,7-1.5,7.73-.93,8.34s1.11,1.07,7.63-3.51Zm-9.57-9.7c.39-2.41.42-5.64-2.13-6.89a6.53,6.53,0,0,0-7,1.23c-2,2-.86,5.07.33,7.2,3.83,6.91,4.86,7,5.77,7.05s1.67-.05,3.06-8.59Zm49.44,51.76c2,.63,4.85,1,6.24-1a5.78,5.78,0,0,0-.23-6.27c-1.53-2-4.29-1.34-6.29-.57-6.46,2.51-6.68,3.39-6.82,4.16s-.15,1.47,7.1,3.7Zm7.65-9.72c2.1.4,4.93.5,6.08-1.7a5.71,5.71,0,0,0-.91-6.2c-1.74-1.77-4.43-.87-6.32.12-6.15,3.2-6.27,4.1-6.32,4.89s0,1.47,7.47,2.89Zm-4-9.7c2-.88,4.34-2.42,4-4.88a5.4,5.4,0,0,0-1.47-2.92A5.49,5.49,0,0,0,657,412.9c-2.43-.46-4.13,1.81-5.12,3.7-3.22,6.14-2.81,6.95-2.4,7.62s.85,1.21,7.78-1.87Zm-13.54.21c2-.86,4.33-2.4,4-4.87a5.37,5.37,0,0,0-1.47-2.92,5.45,5.45,0,0,0-2.82-1.65c-2.43-.46-4.12,1.81-5.11,3.7-3.23,6.14-2.82,6.95-2.4,7.62s.84,1.2,7.78-1.88Zm.32,67.76c.71,2,2.06,4.52,4.54,4.4a5.36,5.36,0,0,0,3-1.24,5.49,5.49,0,0,0,1.87-2.67c.65-2.4-1.49-4.26-3.3-5.4-5.86-3.69-6.7-3.35-7.41-3s-1.27.75,1.27,7.9Zm12.69-17.7c2.05.62,4.86,1,6.25-1a5.47,5.47,0,0,0,.81-3.17,5.42,5.42,0,0,0-1-3.1c-1.53-1.94-4.3-1.34-6.29-.57-6.46,2.51-6.69,3.39-6.82,4.17s-.15,1.46,7.09,3.7Zm-4.3,10.6c1.54,1.48,3.87,3.12,6,1.91a5.76,5.76,0,0,0,2.63-5.7c-.48-2.43-3.23-3.14-5.35-3.35-6.9-.68-7.5,0-8,.64s-.81,1.23,4.65,6.5Zm-36,15.28c.72,2,2.07,4.51,4.53,4.4a5.49,5.49,0,0,0,3-1.23,5.59,5.59,0,0,0,1.87-2.69c.64-2.39-1.49-4.25-3.3-5.39-5.86-3.7-6.7-3.35-7.4-3s-1.27.75,1.26,7.9Zm-8.79,6.77c0,2.14.44,4.94,2.81,5.65a5.35,5.35,0,0,0,3.26-.15,5.45,5.45,0,0,0,2.66-1.91c1.41-2,0-4.5-1.31-6.18-4.3-5.43-5.21-5.39-6-5.28s-1.45.28-1.43,7.87ZM595.27,503c-.86,2-1.57,4.7.31,6.32a5.79,5.79,0,0,0,6.25.48c2.11-1.3,1.83-4.12,1.28-6.19-1.76-6.7-2.61-7-3.36-7.24s-1.44-.32-4.48,6.63ZM584.1,499.8c-1.83,1.13-4,3-3.35,5.37a5.74,5.74,0,0,0,4.86,4c2.47.14,3.85-2.34,4.58-4.35,2.38-6.51,1.87-7.25,1.37-7.86s-1-1.09-7.46,2.88Zm82.5-88.58c4.56,7.5,11.76,20.24,6.45,29-2.82,4.61-8.19,6.76-13.19,8-6.55,1.68-13.81,2.37-20.52,3.07-23.06,2.41-21.88-6.39-2.66-7.32,15.73-.76,6.69-23.21-5.17-12.87-19,16.59-12,1.39-4.38-10.27a102.54,102.54,0,0,1,11.21-13.9,67.57,67.57,0,0,1,7.32-7c2.19-1.7,4.69-3,7.55-2.74,3.06.32,5.33,2.39,7.18,4.68a85.68,85.68,0,0,1,6.21,9.39Zm4.63,66c-2.22,6.25-5.47,12.93-10,17.83-3.37,3.64-8,6.81-13.24,6.15a8.75,8.75,0,0,1-1.74-.39c-4.71-1.53-7.61-6.72-10-10.76-3.22-5.54-6.21-10.67-10.49-15.51-10.73-12.11,3.25-3.39,7.32,1.14,10.5,11.71,22.22-9.45,6.71-12.14-5.19-.89-22.14-8.65-7-7.82,5.7.31,11.43.73,17.12,0,4.57-.6,9-1.53,13.53-2.22,3.32-.5,7.39-1,10,1.56,2.48,2.37,2.3,5.91,1.72,9a92.48,92.48,0,0,1-4,13.17ZM605.16,520a88.26,88.26,0,0,1-26-3.49c-5.34-1.59-11.52-3.48-16.45-6.08-3.21-1.69-6.75-4.23-6.8-8.26-.07-4.54,4.5-7.74,7.88-10,4.9-3.2,10.12-6,15.11-9.11,7.58-4.7,26.11-26.91,17.27-1.47-5.16,14.87,19,14.87,13.87,0-7.77-22.37,3.59-13.54,12.44-3.55,4.47,5.05,9.35,10.9,12.51,16.87,2.3,4.34,4,9.59,2.06,14.39-1.91,4.63-6.51,7-11.07,8.34-6.42,1.88-14.15,2.26-20.82,2.32Zm-72.88-47.66a52.87,52.87,0,0,1-2.57-9.77c-.35-2.69-.16-5.42,1.5-7.69s4.58-3.41,7.39-4c3.34-.76,6.92-1.12,10.33-1.61,6.57-1,13.08-1.2,19.56.55,14.09,3.83,15.47,8.87-2,9.15-15.73.26-7.42,23,4.77,13,18.66-15.25,18.68-5,.89,7.63-4.38,3.11-8.83,6.54-13.44,9.26-3.59,2.12-7.78,4-12,3.15-8.11-1.65-12-12.86-14.34-19.67ZM535,421a76.41,76.41,0,0,1,14.4-22.29,55.78,55.78,0,0,1,8.11-7.56c2.32-1.62,5.14-2.82,7.95-1.67,3.42,1.41,4.55,5.41,5.34,8.67,1,4.11,1.71,8.22,2.82,12.31,1.44,5.25,8.43,18.37,7.25,21.72-.64,1.81-4.06,2.38-11.18-6.45-9.87-12.25-22.69,8.27-7.35,11.77a22.7,22.7,0,0,1,9.88,4.57c10.05,8.52-3,3.71-8.06,2.44a41.61,41.61,0,0,0-10.1-1.39,55.57,55.57,0,0,0-10.61,1.06c-2.76.5-5.77,1.11-8.39-.32-7.53-4.1-2.45-17.22-.06-22.86Zm64.39-51.44c-21.71.89-41.32,9.84-55.82,26.08a85.17,85.17,0,0,0-21.39,54.18,72.25,72.25,0,0,0,3,22.26,73.08,73.08,0,0,0,27.42,38.56c15.47,11.18,34.14,15.86,53.07,15.67,22.45-.23,42.87-9.13,57.69-26.09a82.22,82.22,0,0,0,20.06-56.12,71.46,71.46,0,0,0-1.61-12.87,78.4,78.4,0,0,0-28.19-44.37A80.49,80.49,0,0,0,629,373.6a83.34,83.34,0,0,0-29.62-4.08Z" transform="translate(-349.97 -38.07)"/><path class="cls-1" d="M834.48,315.33a14.54,14.54,0,0,1-1.29-.87,24.46,24.46,0,0,1-5.76-6c-3.86-5.68-5.15-12.51-2.69-19,3.14-8.28,8.65-14.93,17-18.34,32.48-13.3,77.79,25.43,69.78,59.54-2,8.74-7.74,15.23-15.43,19.63-6,3.47-13,3.26-19.22.36a24.75,24.75,0,0,1-6.86-4.74c-.37-.37-.72-.75-1.06-1.15-3.13,4-5.77,8.38-8.92,12.35a23.4,23.4,0,0,1-4.8,4.68l-2.29,1.62a227.67,227.67,0,0,0-34.31-29.28l1.24-2.51a23.5,23.5,0,0,1,3.86-5.48c3.43-3.73,7.35-7,10.79-10.75Zm9.87-16.71c1.88.42,5.27,2.27,7.73,3.71l.15-.18h0c-2.84-5.07-9.13-9.09-15.34-8a10.07,10.07,0,0,0-7.35,6.93c-1,4.16,3,9.43,7.22,11.76l-.08,0a8,8,0,0,0,3.26,1.09c-4.05,5.27-9.3,9.39-13.86,14.34a20.92,20.92,0,0,0-3.34,4.72l2.24,1.58,22.62-26.92a13,13,0,0,0-3.89-3,5.16,5.16,0,0,0-2.94-.41c-3.49.58-3.37,3.7.48,3.81-2.9,3.51-7.45-.06-8.18-2.86-1-3.73,2.1-8.65,11.28-6.6Zm39.4,33.55c-.7-1.75-2.94-4.7-4.75-6.93l.13-.15h0c5.46,2,10.4,7.59,10.35,13.9a10.11,10.11,0,0,1-5.69,8.35c-3.95,1.62-9.79-1.48-12.75-5.28l0,.08a8.16,8.16,0,0,1-1.59-3.05c-4.57,4.83-7.81,10.67-12,16a20.23,20.23,0,0,1-4.14,4c-.62-.65-1.26-1.3-1.91-2l23.12-26.68a13.2,13.2,0,0,1,3.36,3.3,5.34,5.34,0,0,1,.9,2.88c0,3.59-3.09,3.94-3.86.09-3,3.45,1.33,7.48,4.21,7.79,3.85.42,8.2-3.42,4.63-12.32Zm-56.22-37.74c6.42-18.06,18.45-20,27.33-19.65,10.35.36,21.8,5.73,31.37,13.55h0l.59.51.6.51h0c9.23,8.22,16.34,18.68,18.33,28.85,1.7,8.71,1.71,20.89-15.11,30.08,19.6-16.36,9.09-38.81-8.34-52.94l0,.05-.58-.54c-.2-.16-.4-.33-.61-.48l0-.05c-16.69-15-40.52-21.82-53.59.11Zm7.2,45.41,4.51,3.71,4.37,3.87c8.33-11.18,17.39-20.83,29.77-27.93l-6.57-5.84,0,0-1.22-1-1.17-1,0,.05-6.8-5.57c-5.06,13.34-13.17,23.81-22.89,33.79Z" transform="translate(-349.97 -38.07)"/><path class="cls-1" d="M778.27,431a21.26,21.26,0,0,0,1.9,7.81c-5.76-4.26-11.83-9.36-16.84-8.94l-.2,0,0,.21c-.8,4.95,3.83,11.39,7.66,17.44-4-2.48-6-2.47-7.66-2.47a41.57,41.57,0,0,0,11.19,13.67c-5.76-1-12.09.07-15.65,3.13,4.38,3.85,6.56,4,8.77,5.52-3.43-.38-5.27.77-6.14,3.06,5,1.89,7.71,3.54,12.3,2.83a10.84,10.84,0,0,1-2.48,3.12c6.95,4.2,14,4.4,20.72,3.11,12.18-2.36,21.93,5.5,31.44,15.84-2.77-.06-5.51.14-8.48-.59-6.38-1.56-11.87-5-18.39-7.59-4.29-1.7-9.8-2.28-15-3a8,8,0,0,0,3.81,6.76h0c-9-.59-17.74.34-25.06,4.28,1.41,1.12,3.09,2.46,8,2.94-6.9,2.7-14.72,5.19-17,10l-.09.19.16.16c4,3.68,12.17,3.3,19.61,3.42a21.52,21.52,0,0,0-6.33,5.5c6.27.87,12.67-.16,18.95-2.28C779,519.77,776.18,526.6,777,532c5.79-1.69,7.11-3.58,9.65-4.7-2.2,2.9-2.17,5.26-.61,7.42,4.4-3.46,7.31-4.9,9.16-9.51a12.58,12.58,0,0,1,1.43,4.12c7.49-3.82,11.25-10.25,14-17,2.09-5.18,2.77-8,4.65-10.49a10.77,10.77,0,0,1,9.69-4.59c5.2,5.8,10.36,12.2,15.86,17.94a5.52,5.52,0,0,0,3-2.87c-4.91-5.05-11.22-10.74-17.12-16.59a10.75,10.75,0,0,1,5.31-9.44c2.57-1.68,5.48-2.15,10.81-3.85,6.94-2.22,13.64-5.49,18-12.68a12.49,12.49,0,0,1-4-1.72c4.74-1.51,6.4-4.3,10.17-8.44-2-1.71-4.38-1.91-7.44.06,1.3-2.44,3.28-3.62,5.4-9.26-5.28-1.22-12.29,1.06-17.29,5.11a41.39,41.39,0,0,0,3.69-18.73,21.39,21.39,0,0,0-6,5.91c.43-7.43,1.42-15.6-2-19.82l-.13-.18-.21.09c-5,2-8,9.57-11.24,16.25-.12-4.89-1.33-6.66-2.33-8.15-4.48,7-6.07,15.69-6.15,24.67h0a8,8,0,0,0-6.47-4.31c.37,5.19.54,10.73,1.91,15.13,2.1,6.71,5.13,12.44,6.2,18.91.52,3.09.08,5.87-.06,8.71-4.8-4.86-9.19-9.79-12.15-14.51-3.73-6-3.85-9.63-2-17.57,1.54-6.64,2.12-13.65-1.55-20.89a10.65,10.65,0,0,1-3.3,2.24c1.06-4.53-.39-7.31-1.9-12.47-2.35.7-3.63,2.44-3.51,5.89-1.34-2.32-1.34-4.5-4.85-9.16-3.5,3.51-5,10.26-4.17,16.33A42.12,42.12,0,0,0,778.27,431Zm-6.85,9.14c4.6,9.64,11.71,21.27,22.71,26.76-6.43,1-15.56.77-22,1.74,16.27,2.64,22.14,3.15,33.91,7.25-4.6-9.61-7.57-19.8-5.6-32.71-2.5,6.65-5,13.21-4,21.65-9.74-8.14-17.49-14.72-25-24.69Zm69.31-5.57c-6.89,8.17-9.84,26.46-10.32,38.75-3.53-5.46-6.81-12.68-10.34-18.14,4.3,15.92,10.68,20,7.47,30.86a239.55,239.55,0,0,1,30.07-28.61c-7.09.45-15,6.29-22,16,3.41-12.23-.83-27.85,5.16-38.83ZM763,506.68c8.66-6.26,27.11-7.84,39.41-7.39-5.19-3.93-12.13-7.75-17.31-11.67,15.55,5.47,19.17,12.15,30.2,9.75a239.43,239.43,0,0,0-30.76,27.85c1-7,7.38-14.45,17.56-20.78-12.45,2.48-27.7-2.91-39.1,2.24Z" transform="translate(-349.97 -38.07)"/><path class="cls-1" d="M490.48,487.35c.84.57,1.86-.06,2.49-.79s.79-2.24.09-2.84c-.52-.45-1.7-1.41-2.23-.8-1.55,1.82-2.72,2.94-.35,4.43Zm132-280.16c13.14-2.59-.57-17.26-6.07-10.79-3.2,3.76,1.08,11.78,6.07,10.79Zm103.05-90.06c13.14-2.59-.56-17.26-6.08-10.79-3.19,3.75,1.1,11.77,6.08,10.79ZM604.31,204.84c2.13-2.51-3.08-7-6.23-3.32-1.17,1.38-1.67,2.26-.31,3.43,2.58,2.19,4.09,2.77,6.54-.11Zm-50.6,79.67c2.13-2.51-3.08-7-6.23-3.32-1.18,1.38-1.68,2.26-.31,3.42,2.58,2.2,4.08,2.77,6.54-.1Zm-51-46.36c2.13-2.5-3.08-7-6.24-3.31-1.17,1.37-1.67,2.26-.3,3.42,2.58,2.2,4.09,2.77,6.54-.11Zm12.16,70.35c.84.57,1.86-.07,2.49-.8s.79-2.24.09-2.83c-.52-.45-1.7-1.41-2.23-.8-1.55,1.82-2.72,2.93-.35,4.43ZM478,421.45c.85.57,1.87-.06,2.48-.79s.8-2.24.11-2.84c-.53-.45-1.72-1.41-2.24-.8-1.55,1.82-2.72,2.94-.35,4.43Zm-33,40.91c13.14-2.59-.56-17.25-6.08-10.78-3.19,3.75,1.1,11.77,6.08,10.78Zm258-92.69c13.15-2.59-.57-17.26-6.07-10.79-3.2,3.75,1.09,11.77,6.07,10.79Z" transform="translate(-349.97 -38.07)"/><path class="cls-1" d="M851,216.64c-.84-.56-1.85.07-2.48.8s-.8,2.24-.1,2.83c.53.45,1.71,1.42,2.24.8,1.55-1.82,2.72-2.93.34-4.43Zm-132,280.17c-13.15,2.59.57,17.25,6.07,10.78,3.2-3.75-1.09-11.77-6.07-10.78ZM615.85,586.86c-13.13,2.6.57,17.26,6.09,10.79,3.19-3.75-1.1-11.77-6.09-10.79Zm-.73-22.34c-2.14,2.5,3.07,7,6.22,3.31,1.17-1.37,1.67-2.25.31-3.42-2.58-2.19-4.08-2.77-6.53.11Zm78-134.72c-2.13,2.51,3.08,7,6.23,3.32,1.17-1.38,1.68-2.26.3-3.42-2.57-2.2-4.08-2.77-6.53.1Zm128.37,94.92c-2.13,2.51,3.08,7,6.23,3.32,1.17-1.38,1.68-2.26.31-3.43-2.57-2.19-4.08-2.77-6.54.11Zm5.16-129.23c-.85-.56-1.86.07-2.49.8s-.79,2.24-.1,2.83c.53.45,1.71,1.42,2.24.8,1.55-1.82,2.72-2.93.35-4.43Zm73.22-35.6c-.84-.56-1.86.07-2.48.8s-.8,2.24-.1,2.83c.52.45,1.71,1.42,2.24.8,1.54-1.82,2.71-2.93.34-4.43ZM819.65,168.31c-13.14,2.59.56,17.25,6.08,10.79,3.2-3.76-1.1-11.77-6.08-10.79ZM688.06,380.46c-13.15,2.6.56,17.26,6.07,10.79,3.19-3.75-1.09-11.77-6.07-10.79Z" transform="translate(-349.97 -38.07)"/><path class="cls-1" d="M439.77,413.47l-6-1.57a84.29,84.29,0,0,1-7.06-38c1.19-23.16,12.06-43.47,30.09-57.95a95.51,95.51,0,0,1,34.43-18h0l6,1.56L516,383.11l-76.21,30.36ZM467,390.94c.79-12.32-22.27-1.61-15.15,7.45,1.9,2.39,3.78,3.68,5.55,4.1l6.43-2.55a16.09,16.09,0,0,0,3.17-9Zm-23.32,7c1.63-4.24.57-12.57-6.62-10.12-1.38.47-1.55,3.73-1.68,5.13-.37,3.89-.7,6.06,3.37,7.52,2,.73,4.62-.54,4.93-2.53Zm53.85-11.86c4.19-1.73,9.48-8.24,2.76-11.77-1.29-.67-3.77,1.45-4.88,2.32-3.07,2.42-4.87,3.67-3.12,7.63.87,2,3.58,3,5.24,1.82Zm-32.08-60.8c-1-1.32-3.16-2.68-4.64-1.52-1.83,1.45-4.75,4.63-3.94,7.24,1.8,5.84,14.46,1.75,8.58-5.72Zm-19.82,40c-4.71-6-17.33,3.79-10.36,12.64,2.58,3.28,4.35,4.83,7.62,2.26,6.16-4.85,8.16-8,2.74-14.9Zm32.15-36c4.75-2,10.74-9.32,3.13-13.31-1.46-.76-4.27,1.64-5.51,2.62-3.48,2.74-5.52,4.15-3.54,8.63,1,2.22,4.05,3.36,5.92,2.06Zm-5.37,10.34c-10.11-12.85-14.13,17.4-4.18,11.47,4.67-2.78,8.75-5.68,4.18-11.47ZM461.82,364c-5.1,3.19-7.87,8.38-3.92,13.4,1.21,1.53,3.74,1.73,5.61,1.44,2.9-.44,4.86,1.13,7.48.32,11.3-3.5-.88-20.36-9.17-15.16Zm-4.24-21.12c.8-12.32-22.26-1.61-15.14,7.44s14.53,2.11,15.14-7.44Zm43.8.18c-5.82-8.73-23.91,4.52-16.9,13.43,4.76,6,18.21,2.09,18.62-5.72L501.38,343Zm-14.16,34.36c4.74-2,10.72-9.32,3.12-13.3-1.45-.77-4.26,1.63-5.51,2.61-3.48,2.74-5.51,4.16-3.53,8.64,1,2.22,4,3.36,5.92,2.05Zm-5.37,10.34c-7-8.85-11.05,2.75-9.65,8.89L483.82,392a8.13,8.13,0,0,0-2-4.25Z" transform="translate(-349.97 -38.07)"/><path class="cls-1" d="M611.94,151.19l-1.58-5.52a78.31,78.31,0,0,1,27-23.6c19.06-10,40.42-10.92,60.51-3.37a88.79,88.79,0,0,1,30.68,19h0l1.58,5.51-57.95,54.51-60.28-46.52Zm30.86,11.1c10.22-5.19-9.24-18.55-13.1-8.57a9.87,9.87,0,0,0-.66,6.37l5.08,3.92a14.84,14.84,0,0,0,8.68-1.72ZM626.18,147c4.16-.7,10.3-5.48,5-10.07-1-.88-3.71.53-4.89,1.08-3.28,1.55-5.17,2.31-4.41,6.26.37,1.95,2.61,3.43,4.35,2.73Zm34.92,37.41c3.37,2.52,11.07,3.68,10.71-3.36-.07-1.35-2.94-2.33-4.16-2.8-3.38-1.31-5.23-2.16-7.57,1.12-1.16,1.62-.68,4.25,1,5ZM694.51,130c.56-1.45.64-3.78-1-4.42-2-.78-5.94-1.6-7.64.28-3.81,4.2,5.44,12.37,8.63,4.14Zm-41.32,3.08c2.55-6.58-11.22-12-15-2.3-1.4,3.62-1.8,5.76,1.8,7.16,6.79,2.63,10.26,2.73,13.2-4.86Zm44,8.66c3.81,2.86,12.53,4.16,12.11-3.79-.08-1.53-3.33-2.64-4.7-3.17-3.83-1.48-5.92-2.44-8.56,1.26-1.31,1.83-.77,4.82,1.15,5.7Zm-10.79.6c5.48-14.16-20.57-3.07-11.14,2.08,4.43,2.41,8.66,4.3,11.14-2.08Zm-24.46,3c-4.95-2.56-10.41-2.32-12.55,3.21-.65,1.68.38,3.8,1.5,5.16,1.72,2.11,1.4,4.41,3.29,6.12,8.12,7.38,15.84-10.32,7.76-14.49ZM676.77,132c10.21-5.19-9.24-18.55-13.11-8.58s5.19,12.6,13.11,8.58Zm20.56,35.06c4.22-8.78-14.91-17-18.72-7.15-2.58,6.66,6.94,15.54,13.38,12.17l5.34-5ZM663.19,172c3.81,2.86,12.51,4.16,12.11-3.79-.08-1.53-3.33-2.63-4.7-3.16-3.84-1.49-5.93-2.44-8.56,1.26-1.32,1.82-.78,4.81,1.15,5.69Zm-10.8.6c3.78-9.75-7.41-7.52-11.66-3.51l9.2,7.1a7.5,7.5,0,0,0,2.46-3.59Z" transform="translate(-349.97 -38.07)"/><path class="cls-1" d="M732.63,289.48c-6.14,42.59-44.89,68.12-80.69,62.64-36.32-5.56-68.26-39.31-60.56-83.22,8.28-47.29,47.15-69.15,82.42-61.72,34.88,7.35,64.91,40,58.83,82.3Zm-8.71-1.22a66.2,66.2,0,0,1-7,21.65,43.78,43.78,0,0,1-5.41,8.4c-1.7,1.9-3.82,3.41-6.49,3.27-3.35-.19-5.83-3-7.82-5.42-2.55-3.07-4.86-6.16-7.65-9.06-1.88-2-3.81-3.89-5.77-5.78-11.28-10.86-14.78-20.54,2.89-10.47,11.86,6.76,15.7-13.87,2.2-11.82-8,1.21-22.31-2.82-8.45-8.35,7.31-2.92,16.29-4.37,24.07-5.36a57,57,0,0,1,10.51-.65c2.74.18,5.48.87,7.45,2.92,2.2,2.28,2.68,5.46,2.69,8.5a85.89,85.89,0,0,1-1.2,12.17Zm-93.35-32c.47-1.8.72-4.24-1.11-5.37a4.78,4.78,0,0,0-2.77-.59,4.71,4.71,0,0,0-2.65,1c-1.64,1.4-1,3.78-.26,5.48,2.4,5.51,3.17,5.67,3.85,5.76s1.27.08,2.94-6.29Zm16-24.25c.48-1.8.72-4.24-1.11-5.36a5,5,0,0,0-5.42.42c-1.63,1.4-1,3.77-.27,5.47,2.41,5.51,3.19,5.67,3.86,5.76s1.28.08,2.94-6.29Zm17,1.53c.81-1.68,1.53-4-.05-5.49a5,5,0,0,0-5.39-.65c-1.88,1.06-1.73,3.51-1.33,5.32,1.29,5.88,2,6.19,2.65,6.4s1.23.33,4.12-5.58Zm-8.92-5.72c.47-1.8.72-4.24-1.11-5.37a5,5,0,0,0-5.42.42c-1.63,1.4-1,3.78-.27,5.47,2.41,5.51,3.18,5.68,3.85,5.76s1.29.08,2.95-6.28Zm32.56,5.92c.47-1.79.72-4.24-1.11-5.36a4.69,4.69,0,0,0-2.77-.6,4.78,4.78,0,0,0-2.65,1c-1.64,1.4-1,3.78-.26,5.48,2.4,5.51,3.17,5.67,3.85,5.75s1.27.09,2.94-6.28Zm13.09,20.4c1.76.59,4.19,1,5.43-.78a5,5,0,0,0-.1-5.44c-1.3-1.72-3.71-1.24-5.45-.6-5.64,2.07-5.85,2.84-6,3.51s-.16,1.26,6.1,3.31Zm-.62-8.95c1.85-.2,4.22-.86,4.61-3a4.74,4.74,0,0,0-.45-2.8,4.69,4.69,0,0,0-1.9-2.11c-1.89-1-3.88.42-5.2,1.73-4.28,4.23-4.15,5-4,5.67s.38,1.22,6.92.48Zm-5.29-7.1c1.32-1.3,2.78-3.28,1.77-5.19a5,5,0,0,0-4.89-2.39c-2.11.38-2.78,2.74-3,4.58-.73,6-.15,6.51.39,6.92s1.06.72,5.73-3.92Zm10,41.26c1.85-.16,4.24-.76,4.68-2.86a5,5,0,0,0-2.23-5c-1.87-1.06-3.9.32-5.25,1.6-4.37,4.12-4.26,4.9-4.11,5.57s.36,1.23,6.91.65Zm-8.77,24c0,2,.4,4.51,2.56,5.16a5.22,5.22,0,0,0,5.4-1.87c1.29-1.85,0-4.1-1.19-5.64-3.91-4.95-4.73-4.91-5.45-4.81s-1.32.25-1.32,7.16Zm5.64-6.87c.81,1.77,2.23,3.93,4.47,3.62a4.91,4.91,0,0,0,2.65-1.36,5,5,0,0,0,1.49-2.58c.4-2.23-1.69-3.74-3.43-4.63-5.62-2.88-6.36-2.5-7-2.12s-1.09.78,1.78,7.07Zm9.79-6.62c2,.71,4.75,1.24,6.22-.73a5.41,5.41,0,0,0,1-3.08,5.5,5.5,0,0,0-.89-3.11c-1.42-2-4.19-1.53-6.19-.86-6.5,2.18-6.77,3-6.93,3.8s-.22,1.44,6.84,4Zm-52,33.95c-.87,1.65-1.65,4-.12,5.48a4.72,4.72,0,0,0,2.57,1.2,4.77,4.77,0,0,0,2.81-.4c1.91-1,1.83-3.45,1.48-5.27-1.11-5.91-1.82-6.24-2.47-6.48s-1.22-.36-4.27,5.47Zm7.07,8.06c-.67,1.73-1.2,4.13.49,5.46a5.06,5.06,0,0,0,5.44.21c1.78-1.21,1.43-3.64.9-5.41-1.77-5.75-2.52-6-3.18-6.16s-1.25-.23-3.65,5.9Zm8.92-1.9c.43,1.8,1.37,4.08,3.51,4.2a5,5,0,0,0,4.59-2.93c.78-2-.9-3.8-2.35-4.95-4.72-3.72-5.48-3.5-6.11-3.26s-1.17.53.36,6.94Zm2-11.59c.43,1.8,1.37,4.08,3.51,4.2a4.65,4.65,0,0,0,2.73-.78,4.72,4.72,0,0,0,1.86-2.14c.78-2-.9-3.81-2.35-4.95-4.72-3.72-5.48-3.51-6.12-3.26s-1.16.53.37,6.93Zm-57.83-10.46c-1.83.29-4.17,1.05-4.47,3.18a5,5,0,0,0,2.56,4.79c1.94.94,3.87-.59,5.13-2,4.07-4.41,3.92-5.17,3.72-5.83s-.44-1.2-6.94-.18Zm13.09,13.63c-.86,1.65-1.65,4-.12,5.49a4.83,4.83,0,0,0,2.57,1.2,4.76,4.76,0,0,0,2.81-.4c1.9-1,1.84-3.45,1.49-5.28-1.11-5.9-1.84-6.24-2.47-6.47s-1.22-.36-4.28,5.46ZM624,316.21c-1.51,1.09-3.27,2.8-2.58,4.84a4.64,4.64,0,0,0,1.75,2.23,4.71,4.71,0,0,0,2.68.92c2.15,0,3.19-2.26,3.71-4,1.68-5.77,1.19-6.38.72-6.89s-.92-.88-6.28,2.94Zm-7.33-33.14c-1.83.29-4.16,1.05-4.46,3.17a5,5,0,0,0,2.56,4.8c1.94.93,3.86-.59,5.12-2,4.08-4.41,3.92-5.18,3.72-5.84s-.44-1.2-6.94-.17Zm-4.37-8.57c-1.83-.34-4.28-.41-5.27,1.5a4.68,4.68,0,0,0-.38,2.81,4.73,4.73,0,0,0,1.2,2.56c1.52,1.53,3.84.73,5.48-.13,5.31-2.81,5.42-3.59,5.46-4.28s0-1.27-6.49-2.46Zm3.86-10.12c-1.55-1.05-3.76-2.09-5.44-.74a4.8,4.8,0,0,0-1.48,2.42,4.75,4.75,0,0,0,.08,2.84c.77,2,3.22,2.21,5.07,2.07,6-.44,6.41-1.12,6.71-1.73s.5-1.17-4.94-4.86Zm4.51-9c-.66-1.73-1.89-3.86-4-3.7a5,5,0,0,0-4.15,3.51c-.51,2.09,1.39,3.65,3,4.6,5.17,3.06,5.89,2.74,6.49,2.41s1.09-.67-1.29-6.82Zm62.47,84.39c-7.12,2.69-19.12,6.81-25.71.9-3.5-3.12-4.47-8-4.77-12.51-.39-5.85.17-12.15.63-18,1.61-20,8.91-17.65,6.66-1.1-1.84,13.52,18.74,9.37,11.8-2.38-11.13-18.84.73-10.48,9.44-2.1a89.07,89.07,0,0,1,10.09,11.76,59.47,59.47,0,0,1,4.84,7.36c1.1,2.13,1.85,4.48,1.14,6.87-.76,2.56-2.88,4.16-5.12,5.38a76.58,76.58,0,0,1-9,3.81Zm-57.05-6.52c-5-2.88-10.15-6.71-13.61-11.36-2.58-3.45-4.53-7.94-3.15-12.27a8.2,8.2,0,0,1,.61-1.43c2.05-3.77,6.93-5.42,10.75-6.78,5.23-1.86,10.08-3.6,14.89-6.48,12-7.23,2.37,3.31-2.13,6.06-11.66,7.1,4.54,20.45,9.28,7.65,1.59-4.29,10.89-17.52,7.78-4.72-1.16,4.81-2.43,9.63-2.71,14.6-.21,4-.11,7.91-.24,11.88-.1,2.91-.34,6.46-2.93,8.31-2.41,1.74-5.4,1-7.94,0a80.66,80.66,0,0,1-10.6-5.5Zm-26-63.1a76.7,76.7,0,0,1,7.09-21.63c2.21-4.29,4.8-9.26,7.79-13.05,1.95-2.48,4.68-5.09,8.12-4.5,3.89.66,5.9,5.06,7.25,8.3,1.95,4.68,3.53,9.59,5.38,14.33,2.8,7.2,18.8,26.53-1.49,15-11.86-6.76-15.7,13.88-2.2,11.82,20.31-3.08,11,5.21,1.06,11.18-5,3-10.78,6.24-16.37,8-4.07,1.26-8.82,1.93-12.6-.53s-4.94-6.66-5.35-10.75c-.59-5.78.32-12.43,1.32-18.12Zm52.19-54.6a47.34,47.34,0,0,1,8.73-.65,9,9,0,0,1,6.32,2.51c1.77,1.89,2.18,4.44,2.27,6.94.11,3-.14,6.08-.27,9-.23,5.76-1,11.35-3.57,16.6-5.5,11.4-10,11.78-7.47-3.2,2.27-13.46-18.42-10-11.87,2,10.05,18.34,1.29,16.72-6.65-.45-1.95-4.22-4.17-8.57-5.77-12.92-1.23-3.4-2.19-7.27-.77-10.77,2.69-6.65,12.87-8.23,19-9.11ZM695.65,226a66.65,66.65,0,0,1,16.72,15.8,47.67,47.67,0,0,1,5.17,8.12c1,2.24,1.59,4.84.16,7.05-1.74,2.69-5.33,3-8.24,3.17-3.65.19-7.28.16-10.94.46-4.7.39-17,4.27-19.67,2.74-1.44-.83-1.39-3.85,7.27-8.52,12-6.47-3.45-20.65-8.86-8.13a19.68,19.68,0,0,1-5.47,7.7c-8.86,7.23-2.69-3.16-.8-7.25a36.67,36.67,0,0,0,2.79-8.4,49.83,49.83,0,0,0,.77-9.2c0-2.45,0-5.11,1.59-7.12,4.7-5.77,15.09.64,19.51,3.58ZM729.31,289a67.44,67.44,0,0,0-13.39-51.73,73.78,73.78,0,0,0-42.81-26.82,62.59,62.59,0,0,0-19.45-1,63.38,63.38,0,0,0-37.22,17.28c-12,11.42-18.94,26.59-21.77,42.77-3.36,19.18,1,38,13.11,53.32a71.23,71.23,0,0,0,44.67,26,62,62,0,0,0,11.22.67,68.06,68.06,0,0,0,42.31-17,70.14,70.14,0,0,0,15.17-18.85A72.22,72.22,0,0,0,729.31,289Z" transform="translate(-349.97 -38.07)"/><path class="cls-1" d="M551.58,242.14a9.36,9.36,0,0,1,2-2.63,9.17,9.17,0,0,1,2.62-1.64,8.69,8.69,0,0,1,5.82-.29,7.54,7.54,0,0,1,1.34.55,9.12,9.12,0,0,1,4.31,5,8.47,8.47,0,0,1-.64,7,9.72,9.72,0,0,1-4.38,4.22,8.15,8.15,0,0,1-5.24.54,8.38,8.38,0,0,1-2.32-.94,9.41,9.41,0,0,1-4-5,8.66,8.66,0,0,1,.53-6.8Zm7-12.65a17.31,17.31,0,0,1,6.23.86,17.07,17.07,0,0,1,5.18,2.78,16.57,16.57,0,0,1,5.95,9.38,14.17,14.17,0,0,1,.34,2.75,17.31,17.31,0,0,1-4.22,11.82,16.09,16.09,0,0,1-12.19,5.52,18.45,18.45,0,0,1-11.12-3.29,15.59,15.59,0,0,1-5.82-8.19,15.19,15.19,0,0,1-.63-4.74,17.86,17.86,0,0,1,4.5-11.38,16.41,16.41,0,0,1,11.78-5.51Z" transform="translate(-349.97 -38.07)"/><path class="cls-1" d="M805.35,251.94a9.36,9.36,0,0,1,2-2.63,9.12,9.12,0,0,1,2.61-1.64,8.72,8.72,0,0,1,5.83-.29,8.21,8.21,0,0,1,1.34.55,9.16,9.16,0,0,1,4.31,5,8.5,8.5,0,0,1-.64,7,9.72,9.72,0,0,1-4.38,4.22,8.16,8.16,0,0,1-5.24.54,8,8,0,0,1-2.33-.94,9.51,9.51,0,0,1-4-5,8.66,8.66,0,0,1,.54-6.8Zm7-12.65a17.34,17.34,0,0,1,6.23.86,16.9,16.9,0,0,1,5.17,2.78,16.6,16.6,0,0,1,6,9.39,16.84,16.84,0,0,1,.35,2.74,17.35,17.35,0,0,1-4.23,11.82,16.06,16.06,0,0,1-12.2,5.52,18.38,18.38,0,0,1-11.11-3.29,15.45,15.45,0,0,1-5.82-8.19,15.23,15.23,0,0,1-.63-4.74,17.87,17.87,0,0,1,4.49-11.38,16.48,16.48,0,0,1,11.79-5.51Z" transform="translate(-349.97 -38.07)"/><path class="cls-1" d="M701.31,455.52a8.93,8.93,0,0,1,4.62-4.26,8.63,8.63,0,0,1,5.82-.29,7.41,7.41,0,0,1,1.34.55,9.12,9.12,0,0,1,4.31,5,8.44,8.44,0,0,1-.64,7,9.67,9.67,0,0,1-4.38,4.22,8.09,8.09,0,0,1-5.24.54,8.54,8.54,0,0,1-2.33-.93,9.44,9.44,0,0,1-4-5,8.65,8.65,0,0,1,.53-6.81Zm7-12.65a17.8,17.8,0,0,1,6.23.86,17.21,17.21,0,0,1,5.18,2.79,16.59,16.59,0,0,1,5.95,9.38,14.07,14.07,0,0,1,.34,2.75,17.31,17.31,0,0,1-4.22,11.82,16.13,16.13,0,0,1-12.2,5.52,18.45,18.45,0,0,1-11.11-3.3,15.5,15.5,0,0,1-5.82-8.19,15.13,15.13,0,0,1-.63-4.73,17.83,17.83,0,0,1,4.5-11.39,16.44,16.44,0,0,1,11.78-5.51Z" transform="translate(-349.97 -38.07)"/><path class="cls-1" d="M487.36,444.59a9.13,9.13,0,0,1,2-2.62A8.91,8.91,0,0,1,497.8,440a8.25,8.25,0,0,1,1.34.56,9.07,9.07,0,0,1,4.3,5,8.44,8.44,0,0,1-.64,7,9.6,9.6,0,0,1-4.37,4.22,8.18,8.18,0,0,1-5.25.54,7.92,7.92,0,0,1-2.32-.94,9.29,9.29,0,0,1-4-5,8.64,8.64,0,0,1,.53-6.81Zm7-12.65a17.74,17.74,0,0,1,6.22.86,17.15,17.15,0,0,1,5.19,2.79A16.49,16.49,0,0,1,511.7,445a14.08,14.08,0,0,1,.35,2.74,17.38,17.38,0,0,1-4.22,11.83,16.13,16.13,0,0,1-12.2,5.52,18.37,18.37,0,0,1-11.11-3.3,15.52,15.52,0,0,1-5.83-8.19,15.74,15.74,0,0,1-.63-4.73,18,18,0,0,1,4.5-11.39,16.45,16.45,0,0,1,11.79-5.51Z" transform="translate(-349.97 -38.07)"/><path class="cls-1" d="M509.69,265.26c0,.48,0,1,0,1.44a22.93,22.93,0,0,1-1.65,7.49c-2.37,5.86-6.92,10.36-13.16,11.82-7.93,1.85-15.83,1.05-22.7-3.54-26.82-18-20.5-72.44,9.65-83.83,7.73-2.92,15.6-1.89,22.91,1.71,5.75,2.84,9.15,8.25,10.13,14.49a22.76,22.76,0,0,1-.1,7.68c-.09.46-.2.93-.32,1.4,4.64.33,9.35.1,14,.46a21.91,21.91,0,0,1,6,1.27l2.41.91a209.39,209.39,0,0,0-4.75,41.22l-2.55.34a21.56,21.56,0,0,1-6.16-.13c-4.61-.71-9.15-2-13.74-2.73Zm-17.83,1c-.64-1.64-1-5.18-1.14-7.8l-.21,0h0c-2.42,4.77-2.25,11.63,1.75,15.83a9.27,9.27,0,0,0,9.06,2.06c3.67-1.39,5.66-7.13,5.27-11.55l.07,0a7.31,7.31,0,0,0-.84-3.05c6.1.39,11.94,2.28,18.06,3.22a18.49,18.49,0,0,0,5.31.13l.06-2.52-32.16-3.46a12.35,12.35,0,0,0-.28,4.51,4.77,4.77,0,0,0,1.2,2.44c2.23,2.37,4.55.68,2.66-2.31,4.17.42,3.79,5.72,2,7.71-2.35,2.66-7.68,2.83-10.83-5.23Zm5.4-47.29a34.16,34.16,0,0,0-2.86,7.18l-.17,0h0c-1.27-5.2.45-11.84,5.3-15a9.31,9.31,0,0,1,9.29.06c3.26,2.18,3.89,8.23,2.51,12.44l.07,0a7.14,7.14,0,0,1-1.51,2.78c6,1,12.16.49,18.33,1a18.75,18.75,0,0,1,5.2,1.09c-.17.81-.35,1.64-.51,2.47l-32.24-4a12.31,12.31,0,0,1,.79-4.26,5,5,0,0,1,1.75-2.16c2.73-1.85,4.58.33,2.05,2.89,4.15.5,5-4.84,3.78-7.21-1.65-3.14-6.81-4.5-11.78,2.79Zm0,62.29c-17.09,4.36-24.72-3.84-29-10.78-5-8.09-6.81-19.59-5.74-30.91h0l.09-.72c0-.23.05-.47.08-.71h0c1.54-11.27,5.88-22.06,12.63-28.79,5.77-5.78,15.06-12,30.71-3.91-22.55-6.57-34.29,13-36.14,33.53h.06c-.05.24-.08.48-.11.72s-.05.48-.06.72h0c-2.87,20.43,4.13,42.13,27.58,40.86Zm31-28.8.51-5.35.72-5.32c-12.81-.62-24.83-2.59-36.61-8.4l-1.07,8h-.06l-.14,1.44-.19,1.43h.06l-.77,8c12.78-3,24.94-2.16,37.55.14Z" transform="translate(-349.97 -38.07)"/><path class="cls-1" d="M761.74,108.54c-25.83,36.34-34.47,59-31.44,84.69,1.77,15,7.48,31,16.05,51.4,9.47,22.55,5.52,19.76-1.82,38.54,3.85.79,5,9.25,8.84,10,2.84-15.41,2.23-17.6,6.76-30.54,5.15-14.66,17.36-27.21,22.68-43.76,6.43-20,8.61-40.74,1-63.75-5.4-16.22-19.83-26.54-22-46.61Zm-2.1,22.71a221.41,221.41,0,0,0-.45,34.46c6.86-4.8,11.36-17.19,13.34-23.51.25,9.68-7.34,23.3-13,28.85.36,5.8.81,11.55,1.19,17.26,8.3-6,15.55-21.28,17.5-27.95,1.23,10-10.29,26.55-17.18,32.92.24,4.1.43,8.2.52,12.3,10.94-7.58,18.2-21.81,19.74-28.94,3.94,10.45-10.36,27.67-19.69,35.1,0,4.45-.21,8.92-.61,13.41,9.21-6,17.84-18.38,19.85-25.62,1.87,11.93-12.43,26.1-20.59,32.28-.58,4.11-3.14,24.93-4.18,29.11.15-5.68,1.87-27.71,1.67-32.88-9.79-6.82-23.81-20.93-22.89-31.12,3.21,7.19,10,19.14,22.64,25.67-.23-4-.52-8-.82-11.81-8.89-6.44-23-26.67-21.89-37.11,2.68,6.92,10.79,25.24,21.44,31.59-.39-4.54-.77-9-1.07-13.52-7-6.23-17.18-23.61-16-33.8,2,6.62,7.44,22.28,15.63,28.3-.28-5.44-.42-11-.28-16.72-4.48-6.36-10.29-19.87-9.09-28.55,1.17,6,4.2,17.55,9.31,23a181.75,181.75,0,0,1,4.89-32.73Z" transform="translate(-349.97 -38.07)"/><path class="cls-1" d="M629.22,542.41c31,35,51.24,47.39,75.83,45.35,14.31-1.19,30.1-7.28,50.35-16.66,22.39-10.36,19.28-5.58,36.05,4.94,1.21-4.79,9.32-5.65,10.53-10.43-14.16-4.63-16.29-4-27.91-10.6-13.16-7.47-23.46-23.7-38.39-31.53-18-9.46-37.28-13.62-59.88-5.56-15.93,5.67-27.42,23.11-46.58,24.49Zm21.11,4.19a155.75,155.75,0,0,0,32.38,2.94c-3.67-8.95-14.78-15.48-20.48-18.4,9.14.35,21,10.84,25.55,18.37,5.5-.07,11-.23,16.39-.32-4.65-10.85-18.11-21-24.15-23.93,9.53-.86,23.72,14.76,28.86,23.87,3.89,0,7.78,0,11.65.19-5.79-14.28-18.29-24.4-24.81-26.81,10.32-4.25,24.76,14.93,30.6,27.17a111.83,111.83,0,0,1,12.55,1.69c-4.46-12-15.09-23.69-21.67-26.73,11.46-1.54,23,17.43,27.84,28.13,3.81,1,23.08,5.65,26.9,7.25-5.33-.58-25.86-4.26-30.74-4.37-7.64,11.84-22.64,28.52-32.12,26.65A59.29,59.29,0,0,0,736,555.6c-3.83,0-7.54.1-11.22.22-7.15,10.73-27.92,27-37.62,25C694,577.89,712.27,569,719.56,556c-4.32.16-8.58.33-12.85.41-6.73,8.43-24.34,20-33.77,17.75,6.46-2,21.87-7.83,28.55-17.71a152.18,152.18,0,0,1-15.77-.81c-6.54,5.21-20,11.58-28,9.48,5.82-1.06,17-4.08,22.81-10.13a129.71,129.71,0,0,1-30.21-8.4Z" transform="translate(-349.97 -38.07)"/><path class="cls-1" d="M771.66,285.23l6.1-1.75a86.61,86.61,0,0,1,26.15,29.82c11.09,21,12.15,44.63,3.87,66.84a98.36,98.36,0,0,1-20.91,33.94h0l-6.08,1.76-60.36-63.9,51.24-66.71Zm-12.19,34.13c5.76,11.27,20.48-10.25,9.45-14.5-2.92-1.12-5.26-1.26-7-.71l-4.32,5.62a16.5,16.5,0,0,0,1.92,9.59ZM776.35,301c.78,4.58,6.08,11.36,11.14,5.45,1-1.14-.59-4.11-1.21-5.41-1.72-3.63-2.56-5.71-6.92-4.86-2.16.42-3.78,2.9-3,4.82ZM735.1,339.63c-2.78,3.73-4,12.24,3.74,11.82,1.49-.08,2.56-3.25,3.08-4.59,1.44-3.75,2.37-5.8-1.25-8.37-1.79-1.28-4.71-.75-5.57,1.14Zm60.15,36.77c1.6.62,4.18.71,4.88-1.09.86-2.23,1.77-6.57-.32-8.45-4.65-4.2-13.66,6-4.56,9.54Zm-3.5-45.64c7.28,2.8,13.28-12.42,2.51-16.57-4-1.54-6.37-2-7.91,2-2.88,7.5-3,11.33,5.4,14.56Zm-9.46,48.6c-3.15,4.21-4.57,13.84,4.21,13.37,1.69-.09,2.91-3.68,3.49-5.2,1.64-4.24,2.68-6.55-1.41-9.46-2-1.44-5.32-.84-6.29,1.29Zm-.69-11.93c15.65,6,3.34-22.74-2.32-12.3-2.66,4.9-4.73,9.59,2.32,12.3Zm-3.4-27c2.81-5.48,2.53-11.51-3.58-13.86-1.86-.72-4.19.43-5.7,1.67-2.33,1.92-4.87,1.56-6.76,3.64-8.13,9,11.45,17.49,16,8.55Zm14.8,16.4c5.76,11.27,20.46-10.26,9.44-14.5-11.18-4.3-13.92,5.76-9.44,14.5Zm-38.69,22.8c9.7,4.64,18.7-16.53,7.85-20.7-7.36-2.84-17.15,7.71-13.42,14.81l5.57,5.89Zm-5.54-37.71c-3.15,4.21-4.57,13.84,4.22,13.36,1.69-.09,2.9-3.67,3.49-5.19,1.63-4.24,2.68-6.55-1.42-9.46-2-1.45-5.32-.84-6.29,1.29ZM748.09,330c10.78,4.15,8.29-8.21,3.84-12.89l-7.81,10.18a8.22,8.22,0,0,0,4,2.71Z" transform="translate(-349.97 -38.07)"/><path class="cls-1" d="M585.8,133.76c-2.48,1.24-5.23,2.7-10,7.69,2.06-11,5.09-23,.85-30l-.17-.28-.32.08c-7.79,2-13.83,12.77-19.88,22.14.74-7.32-.72-10.2-2-12.62-8,9.61-12,22.28-13.87,35.69h0c-1.65-4.42-4.89-6.55-8.84-7.65-.43,7.82-1.25,16.12,0,23,1.85,10.41,5.28,19.55,5.67,29.43.22,5.85-1.66,10.7-2.2,16.1l2.58,1.4c.32-6.33,3.3-11.46,9.85-14.66,4.17-2,8.61-2.17,16.88-3.71,10.8-2,21.43-5.6,29.31-15.5-4-1.84-4.72-2.56-5.64-3.35,7.37-1.34,10.37-5.2,16.79-10.67-2.72-2.94-6.18-3.69-11.13-1.32,2.41-3.4,5.59-4.79,9.84-12.82-7.65-2.82-18.57-.74-26.81,4.35,5-8.62,8.47-17.77,9.08-27.27Zm-19.51-.37c-10.55,9-17.35,33.63-19.87,50.72-3.93-8.93-7.27-20.23-11.19-29.16,3.36,23.89,11.36,32,5.34,46,10.53-9,31.43-22.76,45-29.43-9.64-1.9-21.16,3.48-32.2,14.55,6.49-15.95,3.16-39.39,12.92-52.67Z" transform="translate(-349.97 -38.07)"/><path class="cls-1" d="M584.22,314.68c-2.26.7-4.77,1.55-9.59,5.08,3.66-8.94,8.31-18.59,6.09-25l-.09-.26-.28,0c-6.74.61-13.62,8.81-20.27,15.82,1.93-6,1.24-8.63.68-10.82-6,5-10.59,11.7-14.14,19.16-.61-7.86-4.11-15.76-9.29-19.4-3.58,7-3.06,9.91-4.29,13.3-.66-4.62-2.77-6.63-6-7-.8,7.2-2.07,11.24.39,17-1-.24-1.79-.37-4.91-2.2-3.18,10.47-.76,19.65,2.84,28.12,5,11.85,7.4,12.5,3.24,27.15l-.11.19.06-.06v.08l.12-.16c11.65-9.83,13.21-8,26.08-8.23,9.2-.2,18.56-1.77,26.8-9-3-2.08-3.42-2.78-4-3.57,6.27-.12,9.42-2.95,15.66-6.64-1.7-2.83-4.39-3.93-8.87-2.63,2.58-2.51,5.44-3.24,10.36-9.39-5.76-3.4-15.07-3.15-22.74,0,5.67-6.53,10.14-13.72,12.34-21.59Zm-13.37-6.36c-11.06,9.23-23.91,22.4-27.42,38.61-3.4-8.08-6.19-20.08-9.6-28.17,2,22.16,3.25,30,1.82,46.75,11-9.21,23.36-16.49,40.89-18.21-9.52-1.06-18.92-2.09-29.63,2,7.39-15.45,13.41-27.76,23.94-40.95Z" transform="translate(-349.97 -38.07)"/><path class="cls-1" d="M877.24,416a9,9,0,0,1,4.61-4.27,8.69,8.69,0,0,1,5.82-.29A7.86,7.86,0,0,1,889,412a9.08,9.08,0,0,1,4.3,5,8.46,8.46,0,0,1-.64,7,9.62,9.62,0,0,1-4.38,4.22,8.15,8.15,0,0,1-5.24.54,8.26,8.26,0,0,1-2.33-.94,9.37,9.37,0,0,1-4-5,8.62,8.62,0,0,1,.54-6.8Zm7-12.65a17.34,17.34,0,0,1,6.23.86,16.88,16.88,0,0,1,5.18,2.79,16.56,16.56,0,0,1,6,9.38,15.8,15.8,0,0,1,.35,2.74A17.39,17.39,0,0,1,897.7,431a16.12,16.12,0,0,1-12.2,5.52,18.42,18.42,0,0,1-11.1-3.3,15.47,15.47,0,0,1-5.83-8.19,15.78,15.78,0,0,1-.63-4.73,17.89,17.89,0,0,1,4.5-11.39,16.44,16.44,0,0,1,11.78-5.51Z" transform="translate(-349.97 -38.07)"/><path class="cls-1" d="M570.14,554a9.17,9.17,0,0,1,2-2.62,8.91,8.91,0,0,1,2.61-1.64,8.72,8.72,0,0,1,5.83-.3,8.25,8.25,0,0,1,1.34.56,9.1,9.1,0,0,1,4.31,5,8.5,8.5,0,0,1-.64,7,9.67,9.67,0,0,1-4.38,4.22,8.11,8.11,0,0,1-7.57-.4,9.43,9.43,0,0,1-4-5,8.62,8.62,0,0,1,.54-6.8Zm7-12.65a17.34,17.34,0,0,1,6.23.86,16.93,16.93,0,0,1,5.17,2.79,16.57,16.57,0,0,1,6,9.38,16.84,16.84,0,0,1,.35,2.74A17.33,17.33,0,0,1,590.6,569a16.1,16.1,0,0,1-12.19,5.52,18.45,18.45,0,0,1-11.11-3.3,15.45,15.45,0,0,1-5.82-8.19,15.13,15.13,0,0,1-.63-4.73,17.88,17.88,0,0,1,4.49-11.39,16.48,16.48,0,0,1,11.79-5.51Z" transform="translate(-349.97 -38.07)"/><path class="cls-2" d="M552.55,662.8C694.23,712.57,824.2,672.64,912,578c53.65-57.86,90.55-146.07,82.66-240.8C1015.7,435.66,978.11,522.79,925,585,833.59,692.19,679,731.37,552.55,662.8Z" transform="translate(-349.97 -38.07)"/><path class="cls-1" d="M787.53,611.92c-1.54-1-3.39.12-4.53,1.45s-1.45,4.08-.18,5.16c1,.82,3.12,2.58,4.07,1.46,2.82-3.31,5-5.34.64-8.07Z" transform="translate(-349.97 -38.07)"/><path class="cls-1" d="M963.28,333.11c-4.49.88.19,5.89,2.07,3.68,1.09-1.28-.37-4-2.07-3.68Z" transform="translate(-349.97 -38.07)"/><path class="cls-1" d="M953.58,406.83c-.85-.56-1.86.06-2.48.8s-.8,2.23-.1,2.83c.53.45,1.71,1.41,2.24.79,1.54-1.81,2.71-2.92.34-4.42Z" transform="translate(-349.97 -38.07)"/><path class="cls-1" d="M549.06,615.74c-2.49,2.92,3.6,8.19,7.28,3.87,1.37-1.61,2-2.64.36-4-3-2.57-4.77-3.24-7.64.13Z" transform="translate(-349.97 -38.07)"/><path class="cls-1" d="M706.69,400.32c-2.27-1.52-5,.17-6.69,2.14s-2.13,6-.27,7.61c1.43,1.21,4.6,3.8,6,2.15,4.16-4.89,7.31-7.88.94-11.9Z" transform="translate(-349.97 -38.07)"/><path class="cls-1" d="M721.93,406c-.84-.56-1.87.06-2.49.8s-.8,2.23-.1,2.83c.53.45,1.71,1.41,2.24.8,1.54-1.82,2.72-2.93.35-4.43Z" transform="translate(-349.97 -38.07)"/><path class="cls-1" d="M808.62,200.3a9.16,9.16,0,0,1,2-2.62,8.78,8.78,0,0,1,2.61-1.64,8.69,8.69,0,0,1,5.82-.29,6.86,6.86,0,0,1,1.34.55,9.16,9.16,0,0,1,4.31,5,8.46,8.46,0,0,1-.64,7,9.67,9.67,0,0,1-4.37,4.21,8.14,8.14,0,0,1-5.26.54,7.5,7.5,0,0,1-2.31-.94,9.31,9.31,0,0,1-4-5,8.64,8.64,0,0,1,.53-6.81Zm7-12.64a17.56,17.56,0,0,1,6.23.85A17,17,0,0,1,827,191.3a16.54,16.54,0,0,1,6,9.38,14.07,14.07,0,0,1,.34,2.74,17.31,17.31,0,0,1-4.22,11.83,16.13,16.13,0,0,1-12.2,5.52,18.46,18.46,0,0,1-11.11-3.29,15.65,15.65,0,0,1-5.83-8.2,15.42,15.42,0,0,1-.62-4.73,18,18,0,0,1,4.49-11.39,16.44,16.44,0,0,1,11.79-5.5Z" transform="translate(-349.97 -38.07)"/><path class="cls-1" d="M455.73,478.9a9.2,9.2,0,0,1,2-2.62,8.91,8.91,0,0,1,8.44-1.94,10.21,10.21,0,0,1,1.34.55,9.14,9.14,0,0,1,4.3,5,8.46,8.46,0,0,1-.64,7,9.62,9.62,0,0,1-4.38,4.22,8.08,8.08,0,0,1-7.56-.4,9.31,9.31,0,0,1-4-5,8.62,8.62,0,0,1,.52-6.8Zm7-12.65a17.31,17.31,0,0,1,6.23.86,16.93,16.93,0,0,1,5.19,2.79,16.6,16.6,0,0,1,5.94,9.38,14.08,14.08,0,0,1,.35,2.74,17.34,17.34,0,0,1-4.22,11.82A16.16,16.16,0,0,1,464,499.37a18.4,18.4,0,0,1-11.1-3.3,15.47,15.47,0,0,1-5.83-8.19,15.78,15.78,0,0,1-.63-4.73,17.87,17.87,0,0,1,4.5-11.39,16.44,16.44,0,0,1,11.78-5.51Z" transform="translate(-349.97 -38.07)"/><path class="cls-1" d="M877.85,239.06a9.36,9.36,0,0,1,2-2.63,9,9,0,0,1,2.62-1.64,8.69,8.69,0,0,1,5.82-.29,7.45,7.45,0,0,1,1.34.56,9.1,9.1,0,0,1,4.31,5,8.5,8.5,0,0,1-.64,7,9.67,9.67,0,0,1-4.38,4.22,8.11,8.11,0,0,1-7.57-.4,9.47,9.47,0,0,1-4-5,8.67,8.67,0,0,1,.54-6.8Zm7-12.65a17.34,17.34,0,0,1,6.23.86,16.9,16.9,0,0,1,5.17,2.78,16.58,16.58,0,0,1,6,9.39,15.8,15.8,0,0,1,.35,2.74A17.31,17.31,0,0,1,898.31,254a16,16,0,0,1-12.19,5.52A18.38,18.38,0,0,1,875,256.23a15.5,15.5,0,0,1-5.82-8.19,15.17,15.17,0,0,1-.63-4.73,17.83,17.83,0,0,1,4.5-11.39,16.44,16.44,0,0,1,11.78-5.51Z" transform="translate(-349.97 -38.07)"/><path class="cls-1" d="M733,419.1a9,9,0,0,1,2-2.62,8.86,8.86,0,0,1,2.61-1.64,8.63,8.63,0,0,1,5.82-.29,7.12,7.12,0,0,1,1.34.55,9,9,0,0,1,4.3,5,8.44,8.44,0,0,1-.63,7A9.62,9.62,0,0,1,744,431.3a8.16,8.16,0,0,1-5.24.54,8.42,8.42,0,0,1-2.33-.93,9.44,9.44,0,0,1-4-5,8.65,8.65,0,0,1,.53-6.81Zm7-12.65a17.83,17.83,0,0,1,6.23.86,17.1,17.1,0,0,1,5.18,2.79,16.59,16.59,0,0,1,6,9.38,14.88,14.88,0,0,1,.34,2.75,17.31,17.31,0,0,1-4.22,11.82,16.13,16.13,0,0,1-12.2,5.52,18.47,18.47,0,0,1-11.11-3.3,15.39,15.39,0,0,1-6.45-12.92A17.93,17.93,0,0,1,728.17,412,16.48,16.48,0,0,1,740,406.45Z" transform="translate(-349.97 -38.07)"/></svg>