<svg id="Layer_1" data-name="Layer 1" xmlns="http://www.w3.org/2000/svg" viewBox="0 0 654.73 644.15"><defs><style>.cls-1{fill:#db7515;}.cls-1,.cls-10,.cls-11,.cls-12,.cls-13,.cls-14,.cls-15,.cls-16,.cls-2,.cls-3,.cls-4,.cls-5,.cls-6,.cls-7,.cls-8,.cls-9{fill-rule:evenodd;}.cls-2{fill:#ffbd0a;}.cls-3{fill:#f4b331;}.cls-4{fill:#eca63c;}.cls-5{fill:#e59b47;}.cls-6{fill:#cf6808;}.cls-7{fill:#a10307;}.cls-8{fill:#ea1c28;}.cls-9{fill:#f3ba3a;}.cls-10{fill:#f7cb49;}.cls-11{fill:#8a743f;}.cls-12{fill:#d4b777;}.cls-13{fill:#f3ddad;}.cls-14{fill:#dbc28c;}.cls-15{fill:#786230;}.cls-16{fill:#fff5e0;}</style></defs><path class="cls-1" d="M670.17,70.87A335.78,335.78,0,0,1,789.56,87.32a326.17,326.17,0,0,1,99.34,53.46c57.11,45,98.63,108.84,114.24,180.08a289.16,289.16,0,0,1,6.59,52.76,324.67,324.67,0,0,1-6,72.82c-11.13,56.66-37,110.36-75,153.88C868.65,669.08,785.52,705.47,694.55,706.4c-75.82.77-150.67-18.45-212.61-63.22a296.92,296.92,0,0,1-124-248.44c1.91-79.88,32.88-158.55,86.13-218.15,58.66-65.65,138.3-102.14,226.1-105.72Z" transform="translate(-355.16 -62.27)"/><path class="cls-1" d="M667.47,62.56A336,336,0,0,1,786.86,79a326,326,0,0,1,99.35,53.47c57.11,45,98.62,108.84,114.24,180.07a289.16,289.16,0,0,1,6.59,52.76,324.09,324.09,0,0,1-6,72.82C989.93,494.79,964,548.49,926,592,866,660.77,782.83,697.16,691.86,698.09c-75.82.77-150.67-18.45-212.61-63.22a297,297,0,0,1-124-248.44c1.91-79.88,32.89-158.55,86.13-218.15C500,102.63,579.68,66.14,667.47,62.56Z" transform="translate(-355.16 -62.27)"/><path class="cls-2" d="M666.67,66.09A331.19,331.19,0,0,1,784.54,82.33a321.29,321.29,0,0,1,98,52.74c56.29,44.38,97.26,107.27,112.65,177.48a284.25,284.25,0,0,1,6.49,51.89c2.58,81.11-26.58,162.57-79.95,223.69-59.2,67.78-141.08,103.59-230.8,104.51-75,.77-148.88-18.1-210.17-62.4A292.3,292.3,0,0,1,358.67,385.73c1.88-78.86,32.48-156.57,85.05-215.41C501.57,105.56,580,69.63,666.67,66.09Z" transform="translate(-355.16 -62.27)"/><path class="cls-3" d="M669.08,70.78c-86,3.51-163.81,39.13-221.25,103.42-52.19,58.43-82.59,135.63-84.47,213.94a289.75,289.75,0,0,0,121,242.35c60.84,44,134.42,62.72,208.88,62,89-.91,170.21-36.38,229-103.66a319.26,319.26,0,0,0,42.51-62.39,326.37,326.37,0,0,0,14.93-33,323.08,323.08,0,0,0,21.93-126.7,281.62,281.62,0,0,0-6.43-51.41c-15.27-69.65-55.93-132-111.77-176.08A319.38,319.38,0,0,0,786.12,86.9a329.54,329.54,0,0,0-117-16.12Z" transform="translate(-355.16 -62.27)"/><path class="cls-4" d="M671.1,75.48C585.9,79,508.77,114.22,451.84,178c-51.77,58-81.92,134.54-83.78,212.21A286.74,286.74,0,0,0,487.84,630c60.38,43.65,133.44,62.19,207.34,61.43,88.19-.9,168.62-36,226.85-102.67A315.84,315.84,0,0,0,964.16,527c25.31-48.54,38.29-103.54,36.55-158.3a279,279,0,0,0-6.35-50.85c-15.13-69-55.45-130.84-110.77-174.46a316.45,316.45,0,0,0-96.42-51.89,326.6,326.6,0,0,0-116.07-16Z" transform="translate(-355.16 -62.27)"/><path class="cls-5" d="M669.55,80.17c-83.44,3.4-158.93,37.91-214.69,100.32-50.73,56.78-80.28,131.87-82.11,208A280.43,280.43,0,0,0,489.9,623c59.22,42.81,130.89,60.94,203.36,60.2,86.35-.88,165-35.2,222-100.48a310.06,310.06,0,0,0,41.27-60.56c24.79-47.55,37.52-101.43,35.81-155.08a272.66,272.66,0,0,0-6.22-49.7c-14.8-67.55-54.29-128.07-108.44-170.77A310,310,0,0,0,783.3,95.83,319.92,319.92,0,0,0,669.55,80.17Z" transform="translate(-355.16 -62.27)"/><path class="cls-6" d="M669.14,96.14c36.58-1.5,80.13-6.69,115.29,4.94,32.69,10.82,54.35,37,80.53,57.64,26,20.53,59,35.56,77.14,64.53,10.11,16.19,14.61,36.39,17.88,55,2.44,13.84,4.23,27.9,7.24,41.63a259.4,259.4,0,0,1,5.89,47.18c1.14,35.8,7.4,73.4-4.76,108.06-12.57,35.79-43.18,66.73-67.78,94.9-25.49,29.18-49.3,63.23-85.76,79.52-36.23,16.18-84.51,15-123.79,15.4a39.14,39.14,0,0,0-6.11.69c-3,.52-6.11,1.15-9.14,1.78-8.13,1.67-16.23,3.31-24.46,4.47-20.18,2.84-41.3,3-60.63-4.28-17-6.41-32.39-13.28-46.84-24.46-6.11-4.72-11.91-9.88-17.8-14.86-8.27-7-16.69-13.61-25.47-19.94-28.51-20.62-62.29-42.28-81-72.7-21-34.15-22.1-103.66-21.15-143.59a156.34,156.34,0,0,0-1.1-20.17c-.8-7.37-1.84-14.72-2.76-22.08-2.19-17.55-4.25-37.79,1.39-54.86,13.18-39.88,43.31-73.35,70.85-104.18a109.84,109.84,0,0,0,9.66-13c3.37-5.17,6.55-10.46,9.78-15.72,7.17-11.64,16.16-26.11,27.57-33.95,45.08-31,103-29.81,155.37-31.94Z" transform="translate(-355.16 -62.27)"/><path class="cls-7" d="M668,98.41c35.87-1.46,80-6.56,114.09,4.73,31.8,10.52,53.12,36.36,79.42,57.11,26,20.51,58.93,35.61,76.38,63.57,16.39,26.27,17.92,65.05,24.6,95.54a255.59,255.59,0,0,1,5.82,46.52c1.13,35.78,7.32,73.05-4.52,106.78-12.22,34.79-42.86,65.92-67.16,93.74-26.64,30.5-49.27,62.91-84.48,78.65-34.92,15.59-82.36,14.64-122.42,15-14.71.15-60.29,17.57-99,3-48.77-18.36-46.46-27.9-89.38-58.93-28.52-20.61-61.95-42.16-80.13-71.64-20.44-33.17-21.44-103.31-20.52-141.58.7-29.57-12-68.09-2.72-96.14,12.88-39,42.77-72.26,70.18-102.94,15.33-17.16,28.07-49.63,46.34-62.19C558,99.73,613.3,100.64,668,98.41Z" transform="translate(-355.16 -62.27)"/><path class="cls-8" d="M668.42,102.1c-49.65,2-107.5,3.64-150.2,33-20.15,13.85-31,40.61-47.24,58.74-26.35,29.5-54.17,65-66.77,103.08-4.94,15-2.77,34.29-.84,49.7,1.83,14.6,1.52,33.54,1.17,48.26C403.65,432,407.33,497.44,426.78,529c17.63,28.59,50.22,52.16,77.14,71.62,30.22,21.84,53,42.65,89.17,56.26,35.58,13.39,69.93.34,103.64,0,37.27-.37,78.48-2.63,112.74-17.94a111.13,111.13,0,0,0,19.15-11.05c24.25-17.25,46.12-42.19,65.6-64.51,23.32-26.7,51.43-59.16,63.3-93,11.39-32.46,7.28-70.63,6.21-104.37-.93-29.3-10.12-59-15.19-87.82-3-16.92-7.09-36.17-16.28-50.9a80.26,80.26,0,0,0-6.54-9c-11.26-13.47-26.65-23.84-41.12-33.58-9.22-6.2-18.5-12.36-27.23-19.25-18.41-14.51-35-32.39-54.69-45a100.06,100.06,0,0,0-22.66-11c-33.16-11-76.94-8.76-111.6-7.35Z" transform="translate(-355.16 -62.27)"/><path class="cls-9" d="M694.42,649.79c47.42-1.94,97.06-5,137.52-32.78,9.95-6.84,26.28-17,32.89-27s13.11-20.17,21.12-29.14c25.58-28.64,53.18-63.4,65.35-100.25,4.11-12.43,1.77-31,.16-43.86-2.13-17-1.74-35.07-1.33-52.17.82-34.34-2.42-99.73-20.43-129-16.76-27.19-49.35-50.44-75-69-29.14-21.06-53.63-42.93-87.92-55.84C735.21,99,699,111.57,666.12,111.9c-35.69.37-76.48,2.3-109.45,17a98.07,98.07,0,0,0-16.85,9.73c-24.08,17.14-45.26,41.62-64.64,63.81-22.45,25.7-50.6,57.8-62,90.28-10.76,30.67-2.29,69.31-1.27,101.41.93,29.33,6.13,59.15,11.21,88.07,2.65,15.07,6.3,33.35,14.48,46.46a67.1,67.1,0,0,0,5.39,7.39c10.43,12.47,25.43,22.4,38.84,31.42,9.85,6.63,19.74,13.21,29.07,20.57,18.48,14.57,35.27,32.76,55,45.43a86.65,86.65,0,0,0,19.55,9.56c32,10.58,75.53,8.1,109,6.73Z" transform="translate(-355.16 -62.27)"/><path class="cls-10" d="M544,567.76c-20.58-4.82-27.72-29.39-8.52-41.28,19.54-12.09,54.43,22.91,82.14,7.25,27.53-15.56-3.14-34.88,48.92-16.91,54.21,18.71-7.57-67.13,85.75-48.92,19.67,3.83,62,7.27,66.44-15.1,10.3-51.51,3.13-19-15.71-48.31-33.2-51.65,43.39-8.82,62.21-21.14,11.79-7.72,2-26.57,18.72-26.57,16.18,0,14.5,17.54,14.5,29,0,15.87,31.4,6.32,31.4,24.77,0,22.61-40.52-6.65-56.17-6.65-21.64,0-17.38,39.71-26.57,55.56-14.86,25.62-25,33.17-5.43,59.79,40.5,55.14-68.58-13.39-76.7-1.2-12.24,18.34,8.18,50.12-29,50.12-20.39,0-50.59-27.95-74.28-11.47-21.4,14.88-15.92,19.52-48.91,3-33.63-16.8-42.86,14.14-68.79,8.07Zm183.53-352.3c13.49,31.85-9.06,29.82-9.06,61.6,0,29.19,33.72,41.43,54.35,23.55,17.86-15.48,6.27-28.85,16.91-42.28,36.86-46.46,48.74,14.5,79.12,14.5,21.18,0,34.57-34.88,22.34-52.55-19-27.47-48.08-4.91-65.82-35.63-18.79-32.52-16.26-59.78-64-59.78-18.11,0-1.14,36.23-14.5,36.23-54.43,0-39.36,7-19.32,54.36Zm-149.17-67c0,5.42,7.48,31.35,4.23,33.82-15.94,12.09-13.95,18.59-6,36.23,4.44,9.91,27.92-23,42.27-27.17,20.25-5.89,13.59-16.59,7.86-32-7.73-20.77-48.32-47.81-48.32-10.87ZM441.83,354.36c-30.93,0-21.33,45.07,19.93,26.57,37.28-16.71,28.39,36.37,28.39,56.77,0,18.95,30.26,33.09,44.68,40.47,60.86,31.1-18.2-155.43,47.72-109.92,9.1,6.28,39.47,25.8,40.46,6.64,1.35-26.05-12.24-30.17-17.52-50.73-5.34-20.87,30.2-25.66,30.2-51.94,0-29-31-44.74-41.67-15.1-17.55,48.63-6.19,76-54.35,36.84-6.29-5.1-19.5,8.75-19.93,12.08-6.92,53-32.22,48.32-77.91,48.32ZM672.53,445c-12,0-20.06-3.89-29.59-11.48-27.18-21.63-3-31.67-3-53.75,0-5.52-9-12.68,4.23-12.68,15.35,0,7.78,8.24,16.31,15.1,13.71,11,24.75-17.37,32-1.21,4.73,10.53,3,23.05,3,35.63,0,9.68,15.59,41.68-1.81,41.68-10.71,0-11.17-12.69-21.14-13.29Zm74.89-67c-2.94-2.94-10.73-11-9.66-15.1,1.27-4.9,13.29-4,13.29-11.47,0-7.29,5.59-7.25,11.47-7.25,2.48,0,6.56-.7,8.46.61,3.73,2.57,2.42,5.63,7.24,6.64,9.75,2,19.33-3.1,19.33,9.66,0,5.54-10.49,4.39-14.5,5.44-8.34,2.17,3,21.58,3,25.36,0,22.49-32.45-7.69-38.65-13.89Z" transform="translate(-355.16 -62.27)"/><path class="cls-11" d="M569.38,247.14c-.63.13-1.26.24-1.88.31a29.45,29.45,0,0,1-10.12-.56c-8.14-1.84-15-6.81-18.2-14.64-4.11-10-4.75-20.44-.22-30.37,17.75-38.8,90.13-42.13,111.4-5.23,5.45,9.46,5.79,19.95,2.63,30.25-2.48,8.1-8.81,13.69-16.74,16.29a30,30,0,0,1-10,1.5c-.63,0-1.26-.06-1.9-.13.55,6.13,1.85,12.23,2.37,18.37a28.87,28.87,0,0,1-.37,8.14l-.68,3.33A277.31,277.31,0,0,0,570.86,277l-1-3.26a28.6,28.6,0,0,1-1.13-8.07c-.07-6.16.66-12.35.63-18.51Z" transform="translate(-355.16 -62.27)"/><path class="cls-12" d="M598.05,271.36c-8.1.4-16.2,1.17-24.22,2.35l-1,.14-.29-.94a26.08,26.08,0,0,1-1-7.29c-.07-7.41,1-14.88.51-22.29a16,16,0,0,1-4.9,1.34,27.11,27.11,0,0,1-9.16-.51c-7.24-1.64-13.35-6-16.23-13-14-33.85,21.29-55.41,50.74-57.46h0l.9,0,.9,0h0c29.51-.72,66.63,17.43,55.9,52.45-2.21,7.23-7.89,12.13-14.94,14.44a27.1,27.1,0,0,1-9.07,1.37,16.1,16.1,0,0,1-5-.87c.24,7.42,2,14.76,2.61,22.14a26.24,26.24,0,0,1-.33,7.35l-.2,1-1-.05c-8.1-.42-16.23-.43-24.33-.07Z" transform="translate(-355.16 -62.27)"/><path class="cls-13" d="M542.83,230.74c-3.07-7.45-2.55-17.24.46-25.42,6.8-18.47,29.35-26.46,49.4-27.71h0l.83,0h.14l.83,0h.05c20.08-.64,43.28,5.21,51.78,23,3.76,7.85,5.21,17.55,2.84,25.26-4.54,14.84-23.62,17.2-29.09,13.41,0,8.08,1.94,16,2.63,24.11a24.37,24.37,0,0,1-.31,7c-7.8-.4-16-.44-24.45-.07s-16.6,1.23-24.33,2.36a24.73,24.73,0,0,1-1-7c-.08-8.18,1.15-16.2.36-24.25-5.1,4.29-24.31,3.72-30.23-10.62Zm49.86-53.13.88-.05" transform="translate(-355.16 -62.27)"/><path class="cls-14" d="M577,272.11l-3.3.46a24.73,24.73,0,0,1-1-7c-.08-8.18,1.15-16.2.36-24.25a9.53,9.53,0,0,1-3.8,1.75l0-.1c-5.68,1.45-13.6.08-16.19-4.42a12.26,12.26,0,0,1,.76-12.25c4.63-6.11,13.55-7.78,20.29-5.65h0l2.8,51.42Z" transform="translate(-355.16 -62.27)"/><path class="cls-15" d="M563.7,224.12c2.13-1.35,7.29-2.7,10.46-3.43.25,2.47.46,6.54.49,9a13.55,13.55,0,0,0-6.8.37,5.94,5.94,0,0,0-2.73,2.09c-2.43,3.41.08,6.07,3.34,3,.31,5.52-6.2,6.14-9,4.26-3.68-2.49-5-9.42,4.2-15.23Z" transform="translate(-355.16 -62.27)"/><path class="cls-11" d="M574.61,228.05c0,.58,0,1.12,0,1.6a13.55,13.55,0,0,0-6.8.37c-1.87.71-4.28,3.1-3.61,5.31-1.45-3.11-.51-4.85,1.35-6a10.9,10.9,0,0,1,9-1.32Z" transform="translate(-355.16 -62.27)"/><path class="cls-14" d="M619.11,270.13q1.68.06,3.33.15a24.37,24.37,0,0,0,.31-7c-.69-8.15-2.67-16-2.63-24.11a9.68,9.68,0,0,0,3.94,1.39l0-.1c5.79.91,13.54-1.2,15.69-5.92,1.82-4,.5-9.53-1.89-12.13-5.19-5.64-14.22-6.47-20.73-3.72h0l2,51.46Z" transform="translate(-355.16 -62.27)"/><path class="cls-15" d="M627.82,221.11c-2.24-1.15-7.52-2-10.73-2.44,0,2.49.15,6.56.35,9a13.61,13.61,0,0,1,6.8-.27,6,6,0,0,1,2.92,1.82c2.73,3.17.49,6.06-3,3.28.21,5.54,6.74,5.54,9.32,3.41,3.42-2.83,4-9.85-5.61-14.77Z" transform="translate(-355.16 -62.27)"/><path class="cls-11" d="M617.33,226.05c0,.57.07,1.11.11,1.59a13.61,13.61,0,0,1,6.8-.27c1.93.54,4.55,2.68,4.09,4.95,1.15-3.23,0-4.87-1.9-5.81a10.85,10.85,0,0,0-9.1-.46Z" transform="translate(-355.16 -62.27)"/><path class="cls-16" d="M545.82,234.39c-9.31-21.36-.23-33,7.9-40.16,9.48-8.28,24.1-13,39.09-14.06v0l1,0,1-.05v0c15-.39,30,3,40.25,10.34,8.75,6.31,18.89,17.1,11.62,39.24,3.77-30.81-24.22-42-51.42-40v.06h-1l-1,.08v-.06c-27.26.59-54.08,14.33-47.44,44.65Z" transform="translate(-355.16 -62.27)"/><path class="cls-16" d="M590,268.67l7.08-.47,7.09-.19c-1.91-16.83-1.9-32.94,3.17-49.53l-10.68.29v-.08l-1.9.14-1.91,0V219l-10.66.72c6.61,16,8.13,32.07,7.81,49Z" transform="translate(-355.16 -62.27)"/><path class="cls-11" d="M579.45,496.06c-.26-.59-.49-1.18-.7-1.77a29.89,29.89,0,0,1-1.57-10c.09-8.35,3.52-16.07,10.51-20.87,8.87-6.1,19-8.92,29.64-6.57,41.66,9.22,60.09,79.29,28.47,107.82-8.11,7.31-18.3,9.85-29,8.92-8.45-.72-15.24-5.75-19.44-13a29.66,29.66,0,0,1-3.58-9.49c-.11-.61-.2-1.25-.27-1.88-5.88,1.82-11.57,4.37-17.46,6.16a28.52,28.52,0,0,1-8,1.35l-3.4,0a276.93,276.93,0,0,0-14-53l3-1.64a28.69,28.69,0,0,1,7.65-2.8c6-1.35,12.22-1.94,18.23-3.26Z" transform="translate(-355.16 -62.27)"/><path class="cls-12" d="M561.79,529.17c-2.1-7.84-4.55-15.59-7.38-23.19l-.34-.93.86-.48a26.16,26.16,0,0,1,6.91-2.52c7.23-1.62,14.75-2.16,21.9-4.17a16,16,0,0,1-2.33-4.51A27.16,27.16,0,0,1,580,484.3c.09-7.42,3.06-14.3,9.3-18.59,30.17-20.74,58.63,9.21,66.81,37.57h0v.05c.08.29.15.58.22.87l.24.87v.05h0c6.89,28.69-3.07,68.8-39.56,65.65-7.53-.65-13.51-5.17-17.25-11.58a27.29,27.29,0,0,1-3.24-8.58,16.27,16.27,0,0,1-.2-5.09c-7.2,1.79-14,5-21.1,7.19a26,26,0,0,1-7.26,1.22h-1l-.16-1c-1.29-8-3-16-5-23.8Z" transform="translate(-355.16 -62.27)"/><path class="cls-13" d="M589.93,466.66c6.64-4.57,16.32-6.1,25-4.88,19.48,2.78,32,23.15,37.45,42.5h0v.05l.21.81,0,.13c.06.26.14.53.21.8v.05h0c4.84,19.5,4,43.4-11.59,55.44-6.89,5.32-16.07,8.77-24.11,8.07-15.45-1.33-21.76-19.49-19.21-25.64-7.91,1.66-15.2,5.25-23,7.63a24.45,24.45,0,0,1-6.93,1.17c-1.24-7.71-2.92-15.74-5.06-23.92s-4.68-16-7.41-23.3a25.1,25.1,0,0,1,6.61-2.4c8-1.79,16.09-2.26,23.78-4.73-5.25-4.09-8.73-23,4.06-31.78Zm62.4,37.62c.08.28.15.57.23.85" transform="translate(-355.16 -62.27)"/><path class="cls-14" d="M556.63,508.71c-.38-1.06-.76-2.1-1.15-3.14a25.1,25.1,0,0,1,6.61-2.4c8-1.79,16.09-2.27,23.78-4.72a9.86,9.86,0,0,1-2.5-3.35h.11c-2.62-5.25-2.93-13.28.93-16.75,3.25-2.94,8.93-3.34,12.13-1.83,6.94,3.25,10.45,11.62,9.78,18.65h0l-49.69,13.53Z" transform="translate(-355.16 -62.27)"/><path class="cls-15" d="M600.78,485.68c1.76,1.79,4.16,6.56,5.54,9.5-2.37.77-6.3,1.82-8.66,2.36a13.43,13.43,0,0,0-1.79-6.57,6,6,0,0,0-2.61-2.23c-3.84-1.66-5.92,1.35-2.22,3.89-5.33,1.46-7.3-4.77-6-7.87,1.67-4.11,8.17-6.81,15.78.92Z" transform="translate(-355.16 -62.27)"/><path class="cls-11" d="M599.21,497.17l-1.55.37a13.43,13.43,0,0,0-1.79-6.57c-1.08-1.67-3.92-3.53-6-2.41,2.74-2.07,4.64-1.52,6.11.06a10.86,10.86,0,0,1,3.18,8.55Z" transform="translate(-355.16 -62.27)"/><path class="cls-14" d="M567.4,549.51c.19,1.1.38,2.2.55,3.28a24.5,24.5,0,0,0,6.93-1.17c7.82-2.38,15.11-6,23-7.63a9.77,9.77,0,0,0-.53,4.15l.09-.06c.32,5.85,4,13,9.08,14.1,4.28,1,9.42-1.51,11.46-4.4,4.43-6.25,3.35-15.25-.71-21h0L567.4,549.51Z" transform="translate(-355.16 -62.27)"/><path class="cls-15" d="M617.16,547.74c.65-2.43.39-7.77.13-11-2.44.5-6.38,1.52-8.69,2.22a13.72,13.72,0,0,1,1.69,6.6,6,6,0,0,1-1.17,3.23c-2.53,3.33-5.82,1.75-3.85-2.29-5.37,1.36-4,7.75-1.38,9.83,3.49,2.75,10.48,1.88,13.27-8.59Z" transform="translate(-355.16 -62.27)"/><path class="cls-11" d="M610.13,538.52l-1.53.44a13.69,13.69,0,0,1,1.69,6.6c-.13,2-1.68,5-4,5,3.4.45,4.78-1,5.28-3.07a10.87,10.87,0,0,0-1.45-9Z" transform="translate(-355.16 -62.27)"/><path class="cls-16" d="M587,470.35c18.93-13.58,32.27-7.16,40.92-.7,10.09,7.54,17.82,20.83,22,35.28h0c.09.3.16.61.24.92s.17.61.25.92h0c3.53,14.61,3.38,30-1.68,41.52-4.33,9.88-12.76,22.05-35.93,19.58,30.92-2.77,36-32.47,28.35-58.65H641l-.21-.93c-.09-.3-.18-.61-.28-.91h.07c-6.3-26.53-25.35-49.88-53.61-37Z" transform="translate(-355.16 -62.27)"/><path class="cls-16" d="M562.72,520.71l1.94,6.82,1.68,6.9c16.06-5.4,31.81-8.76,49.09-7.28l-2.52-10.38.07,0-.52-1.83-.45-1.86-.08,0L609,502.81c-14.3,9.82-29.66,14.66-46.28,17.9Z" transform="translate(-355.16 -62.27)"/><path class="cls-11" d="M841.47,359.48a18,18,0,0,1,.63-1.79,29.7,29.7,0,0,1,5.36-8.61c5.54-6.25,13.19-9.84,21.61-8.9,10.7,1.2,20.19,5.69,26.71,14.44,25.46,34.24-6.48,99.28-49.07,100.14-10.91.23-20.27-4.53-27.77-12.25-5.91-6.08-7.76-14.32-6.22-22.52a29.94,29.94,0,0,1,3.52-9.52c.31-.54.66-1.07,1-1.6-5.64-2.47-11.61-4.27-17.24-6.77a28.31,28.31,0,0,1-6.95-4.25l-2.6-2.19a277.06,277.06,0,0,0,24.12-49.25l3.33.7a28.83,28.83,0,0,1,7.62,2.9c5.43,2.91,10.51,6.53,15.92,9.47Z" transform="translate(-355.16 -62.27)"/><path class="cls-12" d="M806.44,372.94c3.54-7.29,6.76-14.76,9.6-22.36l.35-.92,1,.2a26.2,26.2,0,0,1,6.88,2.62c6.53,3.51,12.57,8,19.28,11.19a16.32,16.32,0,0,1,1.19-4.95,27.22,27.22,0,0,1,4.86-7.78c4.92-5.55,11.68-8.81,19.2-8,36.39,4.07,38.29,45.35,25.91,72.14h0v.05c-.13.27-.27.53-.4.8l-.39.81v0l0,0h0c-13.58,26.21-47.37,50-72.88,23.73-5.27-5.42-6.84-12.76-5.47-20a27.14,27.14,0,0,1,3.17-8.61,15.92,15.92,0,0,1,3.18-4c-6.62-3.36-13.89-5.37-20.66-8.38a26.31,26.31,0,0,1-6.28-3.82l-.76-.64.52-.85q6.4-10.35,11.79-21.29Z" transform="translate(-355.16 -62.27)"/><path class="cls-13" d="M868.63,344.11c8,.9,16.33,6.08,22,12.65,12.91,14.86,9.06,38.46.49,56.64h0v.05l-.37.75,0,.12c-.13.24-.25.49-.37.74l0,0v0h0c-9.12,17.9-25.41,35.42-45.06,34.32-8.7-.49-17.89-3.89-23.51-9.68-10.81-11.12-3.7-29,2.26-32-7.06-3.92-14.92-6-22.4-9.3a24.67,24.67,0,0,1-6-3.65c4.11-6.65,8.09-13.81,11.84-21.39s6.91-15.15,9.65-22.47a25.13,25.13,0,0,1,6.56,2.51c7.2,3.87,13.65,8.82,21.08,12-1.3-6.54,8.45-23.1,23.87-21.38Zm22.54,69.29-.38.8" transform="translate(-355.16 -62.27)"/><path class="cls-14" d="M815.93,354.1c.41-1.05.8-2.08,1.19-3.12a25.13,25.13,0,0,1,6.56,2.51c7.2,3.87,13.65,8.82,21.08,12a9.63,9.63,0,0,1,.29-4.17l.08.08c1.46-5.68,6.47-12,11.66-12.06,4.39-.08,8.94,3.33,10.38,6.56,3.12,7,.29,15.63-4.82,20.51h0L815.93,354.1Z" transform="translate(-355.16 -62.27)"/><path class="cls-15" d="M864.38,365.59c.16,2.51-1.15,7.69-2,10.82-2.3-1-6-2.75-8.09-3.89a13.57,13.57,0,0,0,3-6.14,5.86,5.86,0,0,0-.52-3.39c-1.82-3.77-5.36-2.86-4.22,1.49-5-2.39-2.4-8.39.58-9.91,4-2,10.64.2,11.33,11Z" transform="translate(-355.16 -62.27)"/><path class="cls-11" d="M855.68,373.25l-1.42-.73a13.57,13.57,0,0,0,3-6.14c.27-2-.65-5.24-2.92-5.72,3.42.23,4.49,1.89,4.58,4a10.89,10.89,0,0,1-3.19,8.54Z" transform="translate(-355.16 -62.27)"/><path class="cls-14" d="M797.36,392c-.57,1-1.15,1.91-1.73,2.85a24.67,24.67,0,0,0,6,3.65c7.48,3.32,15.34,5.38,22.4,9.3a9.62,9.62,0,0,0-3.11,2.79h.1c-3.59,4.63-5.47,12.45-2.37,16.61,2.62,3.51,8.11,5,11.55,4.18,7.44-1.83,12.52-9.35,13.24-16.38h0l-46.08-23Z" transform="translate(-355.16 -62.27)"/><path class="cls-15" d="M836.13,423.23c2.09-1.41,5.38-5.62,7.31-8.23-2.17-1.22-5.83-3-8-4a13.56,13.56,0,0,1-3,6.09,5.94,5.94,0,0,1-3,1.68c-4.09.87-5.54-2.49-1.41-4.25-5-2.48-8.1,3.24-7.48,6.53.84,4.36,6.69,8.28,15.65,2.19Z" transform="translate(-355.16 -62.27)"/><path class="cls-11" d="M836.86,411.66l-1.45-.67a13.46,13.46,0,0,1-3,6.09c-1.4,1.43-4.54,2.69-6.31,1.2,2.28,2.57,4.25,2.39,6,1.13a10.84,10.84,0,0,0,4.79-7.75Z" transform="translate(-355.16 -62.27)"/><path class="cls-16" d="M864,345c23.21,2.12,29.08,15.71,31.39,26.26,2.7,12.3-.16,27.4-6.5,41h0c-.13.29-.28.57-.42.85s-.27.57-.42.86h0c-6.89,13.36-17.08,24.88-28.45,30.29-9.75,4.63-24.09,8.32-40-8.72,25.18,18.15,48.44-1,59.82-25.78l-.06,0c.16-.28.31-.56.46-.84s.26-.58.38-.87l.06,0c12.61-24.18,13.48-54.3-16.29-63.08Z" transform="translate(-355.16 -62.27)"/><path class="cls-16" d="M812.68,367.16l-3,6.43-3.25,6.31c15.67,6.44,29.78,14.2,41.88,26.64l4.89-9.5.07,0,.8-1.73.87-1.69-.07,0,4.51-9.69c-17.24-1.93-32-8.32-46.7-16.76Z" transform="translate(-355.16 -62.27)"/><path class="cls-11" d="M724.43,146.37c.09-.31.2-.61.31-.9a14.87,14.87,0,0,1,2.67-4.28,12.41,12.41,0,0,1,10.75-4.43c5.33.6,10.06,2.83,13.3,7.19,12.67,17-3.23,49.41-24.42,49.84-5.43.11-10.09-2.26-13.83-6.1a12.4,12.4,0,0,1-3.09-11.21,14.83,14.83,0,0,1,1.75-4.73c.16-.27.33-.54.51-.8-2.8-1.23-5.78-2.12-8.58-3.37a14.26,14.26,0,0,1-3.46-2.11l-1.29-1.1a137.78,137.78,0,0,0,12-24.51l1.65.35a14.45,14.45,0,0,1,3.8,1.44c2.7,1.45,5.22,3.25,7.92,4.72Z" transform="translate(-355.16 -62.27)"/><path class="cls-12" d="M707,153.07c1.77-3.63,3.37-7.35,4.78-11.13l.18-.46.48.1a13.26,13.26,0,0,1,3.42,1.3c3.25,1.75,6.25,4,9.59,5.57A8.22,8.22,0,0,1,726,146a13.55,13.55,0,0,1,2.42-3.87,11,11,0,0,1,9.55-4c18.11,2,19.06,22.57,12.89,35.9h0c-.06.14-.13.27-.2.4s-.13.27-.19.41h0c-6.76,13-23.58,24.88-36.28,11.81a11,11,0,0,1-2.71-10,13.76,13.76,0,0,1,1.57-4.29,8.15,8.15,0,0,1,1.58-2c-3.29-1.68-6.91-2.68-10.28-4.17a13.19,13.19,0,0,1-3.13-1.91l-.37-.32.26-.42c2.12-3.43,4.07-7,5.86-10.59Z" transform="translate(-355.16 -62.27)"/><path class="cls-13" d="M737.94,138.72c4,.45,8.14,3,11,6.29,6.43,7.4,4.51,19.15.25,28.19h0v0l-.18.37,0,.06-.18.37h0v0h0c-4.54,8.92-12.65,17.63-22.43,17.09-4.32-.25-8.9-1.94-11.7-4.82-5.38-5.54-1.84-14.43,1.13-15.91-3.52-1.95-7.43-3-11.15-4.63a12.28,12.28,0,0,1-3-1.81c2-3.31,4-6.88,5.9-10.65s3.44-7.54,4.8-11.18a12,12,0,0,1,3.26,1.25c3.59,1.92,6.8,4.39,10.49,6-.64-3.25,4.21-11.5,11.88-10.64Zm11.23,34.48-.19.4" transform="translate(-355.16 -62.27)"/><path class="cls-14" d="M711.72,143.69c.2-.52.4-1,.59-1.55a12,12,0,0,1,3.26,1.25c3.59,1.92,6.8,4.38,10.49,6a5,5,0,0,1,.15-2.08l0,0c.73-2.83,3.22-5.95,5.81-6a6.1,6.1,0,0,1,5.16,3.27c1.55,3.48.15,7.77-2.4,10.2h0l-23.1-11.1Z" transform="translate(-355.16 -62.27)"/><path class="cls-15" d="M735.83,149.41a21.94,21.94,0,0,1-1,5.38c-1.14-.48-3-1.37-4-1.93a6.83,6.83,0,0,0,1.46-3.06,3,3,0,0,0-.25-1.69c-.91-1.87-2.67-1.42-2.1.74-2.49-1.19-1.2-4.17.28-4.93,2-1,5.3.1,5.64,5.49Z" transform="translate(-355.16 -62.27)"/><path class="cls-11" d="M731.5,153.22l-.7-.36a6.83,6.83,0,0,0,1.46-3.06c.14-1-.32-2.6-1.45-2.84,1.7.11,2.24.94,2.28,2a5.42,5.42,0,0,1-1.59,4.25Z" transform="translate(-355.16 -62.27)"/><path class="cls-14" d="M702.48,162.55l-.87,1.42a12.6,12.6,0,0,0,3,1.81c3.72,1.66,7.63,2.68,11.15,4.63a4.78,4.78,0,0,0-1.55,1.39h0c-1.78,2.3-2.72,6.19-1.18,8.26a6.12,6.12,0,0,0,5.75,2.08c3.7-.91,6.23-4.65,6.59-8.15h0l-22.93-11.45Z" transform="translate(-355.16 -62.27)"/><path class="cls-15" d="M721.77,178.1a22.21,22.21,0,0,0,3.64-4.1c-1.08-.61-2.9-1.5-4-2a6.76,6.76,0,0,1-1.51,3,3,3,0,0,1-1.49.83c-2,.43-2.76-1.24-.71-2.11-2.46-1.24-4,1.61-3.72,3.24.42,2.18,3.33,4.13,7.79,1.1Z" transform="translate(-355.16 -62.27)"/><path class="cls-11" d="M722.13,172.34c-.25-.12-.5-.24-.72-.33a6.76,6.76,0,0,1-1.51,3c-.7.71-2.26,1.34-3.14.59,1.13,1.28,2.11,1.19,3,.57a5.43,5.43,0,0,0,2.38-3.86Z" transform="translate(-355.16 -62.27)"/><path class="cls-16" d="M735.63,139.15c11.55,1.06,14.48,7.82,15.63,13.07,1.34,6.12-.09,13.64-3.24,20.42h0l-.21.42-.21.43h0c-3.43,6.65-8.5,12.38-14.16,15.08-4.85,2.3-12,4.14-19.9-4.34,12.53,9,24.11-.5,29.77-12.83l0,0c.08-.14.16-.28.23-.42l.19-.43h0c6.28-12,6.71-27-8.11-31.39Z" transform="translate(-355.16 -62.27)"/><path class="cls-16" d="M710.1,150.19l-1.49,3.2L707,156.53c7.8,3.2,14.82,7.07,20.84,13.26l2.44-4.73,0,0,.4-.86.43-.85,0,0,2.24-4.82c-8.58-1-15.93-4.14-23.24-8.34Z" transform="translate(-355.16 -62.27)"/><path class="cls-11" d="M475.5,416.37c.1-.31.2-.61.32-.9a14.87,14.87,0,0,1,2.67-4.28,12.4,12.4,0,0,1,10.75-4.43c5.33.6,10.05,2.83,13.29,7.19,12.68,17-3.22,49.41-24.42,49.84-5.43.11-10.09-2.26-13.82-6.1a12.4,12.4,0,0,1-3.09-11.21,14.83,14.83,0,0,1,1.75-4.73c.15-.27.33-.54.51-.8-2.81-1.23-5.78-2.12-8.58-3.37a14.07,14.07,0,0,1-3.46-2.11l-1.29-1.1a137.74,137.74,0,0,0,12-24.51l1.66.35a14.26,14.26,0,0,1,3.79,1.44c2.7,1.45,5.23,3.25,7.92,4.72Z" transform="translate(-355.16 -62.27)"/><path class="cls-12" d="M458.07,423.07c1.76-3.63,3.37-7.35,4.78-11.13l.17-.46.48.1a13,13,0,0,1,3.42,1.3c3.25,1.75,6.26,4,9.6,5.57a7.92,7.92,0,0,1,.59-2.46,13.55,13.55,0,0,1,2.42-3.87,11,11,0,0,1,9.56-4c18.11,2,19.06,22.57,12.89,35.9h0c-.07.14-.13.27-.2.4l-.2.41h0c-6.75,13-23.57,24.88-36.27,11.81a11,11,0,0,1-2.72-10,13.53,13.53,0,0,1,1.58-4.29,8.15,8.15,0,0,1,1.58-2c-3.29-1.68-6.91-2.68-10.28-4.17a13,13,0,0,1-3.13-1.91l-.37-.32.25-.42c2.13-3.43,4.08-7,5.87-10.59Z" transform="translate(-355.16 -62.27)"/><path class="cls-13" d="M489,408.72c4,.45,8.13,3,11,6.29,6.42,7.4,4.51,19.15.24,28.19h0v0l-.19.37,0,.06c-.07.12-.13.25-.19.37h0v0h0c-4.54,8.92-12.65,17.63-22.43,17.09-4.33-.25-8.9-1.94-11.7-4.82-5.38-5.54-1.84-14.43,1.12-15.91-3.51-2-7.42-3-11.14-4.63a12.09,12.09,0,0,1-3-1.81c2.05-3.31,4-6.88,5.89-10.65s3.44-7.54,4.8-11.18a12,12,0,0,1,3.27,1.25c3.59,1.92,6.79,4.39,10.49,6-.64-3.25,4.21-11.5,11.88-10.64Zm11.22,34.48c-.06.14-.12.27-.19.4" transform="translate(-355.16 -62.27)"/><path class="cls-14" d="M462.79,413.69c.21-.52.4-1,.59-1.55a12,12,0,0,1,3.27,1.25c3.59,1.92,6.79,4.38,10.49,6a4.8,4.8,0,0,1,.15-2.08l0,0c.72-2.83,3.22-5.95,5.8-6a6.13,6.13,0,0,1,5.17,3.27c1.55,3.48.14,7.77-2.4,10.2h0l-23.11-11.1Z" transform="translate(-355.16 -62.27)"/><path class="cls-15" d="M486.91,419.41a21.94,21.94,0,0,1-1,5.38c-1.15-.48-3-1.37-4-1.93a6.84,6.84,0,0,0,1.47-3.06,3,3,0,0,0-.26-1.69c-.9-1.87-2.67-1.42-2.1.74-2.48-1.19-1.19-4.17.29-4.93,2-1,5.29.1,5.64,5.49Z" transform="translate(-355.16 -62.27)"/><path class="cls-11" d="M482.58,423.22l-.71-.36a6.84,6.84,0,0,0,1.47-3.06c.13-1-.33-2.6-1.45-2.84,1.7.11,2.23.94,2.27,2a5.38,5.38,0,0,1-1.58,4.25Z" transform="translate(-355.16 -62.27)"/><path class="cls-14" d="M453.55,432.55c-.28.48-.57.95-.86,1.42a12.4,12.4,0,0,0,3,1.81c3.72,1.66,7.63,2.68,11.15,4.63a4.78,4.78,0,0,0-1.55,1.39h.05c-1.79,2.3-2.73,6.19-1.18,8.26a6.1,6.1,0,0,0,5.74,2.08c3.71-.91,6.23-4.65,6.6-8.15h0l-22.94-11.45Z" transform="translate(-355.16 -62.27)"/><path class="cls-15" d="M472.85,448.1a22.21,22.21,0,0,0,3.64-4.1c-1.09-.61-2.9-1.5-4-2a6.76,6.76,0,0,1-1.51,3,3,3,0,0,1-1.5.83c-2,.43-2.76-1.24-.7-2.11-2.46-1.24-4,1.61-3.72,3.24.42,2.18,3.33,4.13,7.79,1.1Z" transform="translate(-355.16 -62.27)"/><path class="cls-11" d="M473.21,442.34c-.26-.12-.5-.24-.72-.33a6.76,6.76,0,0,1-1.51,3c-.7.71-2.27,1.34-3.14.59,1.13,1.28,2.11,1.19,3,.57a5.42,5.42,0,0,0,2.39-3.86Z" transform="translate(-355.16 -62.27)"/><path class="cls-16" d="M486.71,409.15c11.55,1.06,14.47,7.82,15.62,13.07,1.35,6.12-.08,13.64-3.23,20.42h0l-.21.42-.21.43h0c-3.43,6.65-8.49,12.38-14.16,15.08-4.85,2.3-12,4.14-19.9-4.34,12.54,9,24.12-.5,29.78-12.83l0,0,.23-.42.19-.43h0c6.27-12,6.71-27-8.11-31.39Z" transform="translate(-355.16 -62.27)"/><path class="cls-16" d="M461.18,420.19l-1.5,3.2-1.61,3.14c7.8,3.2,14.82,7.07,20.84,13.26l2.43-4.73,0,0,.4-.86.43-.85,0,0,2.24-4.82c-8.58-1-15.94-4.14-23.24-8.34Z" transform="translate(-355.16 -62.27)"/><path class="cls-11" d="M895.6,270.84c.29.12.58.25.86.39a14.64,14.64,0,0,1,4.06,3,12.41,12.41,0,0,1,3.54,11.07c-1,5.26-3.63,9.79-8.23,12.67-18,11.26-49-7.2-47.71-28.36.33-5.43,3.06-9.88,7.19-13.29a12.43,12.43,0,0,1,11.43-2.18,15.19,15.19,0,0,1,4.58,2.13q.38.27.75.57c1.45-2.69,2.58-5.58,4-8.28a14.24,14.24,0,0,1,2.39-3.27l1.19-1.2A138.06,138.06,0,0,0,903.16,258l-.48,1.63a14.64,14.64,0,0,1-1.74,3.66c-1.67,2.58-3.67,4.95-5.34,7.51Z" transform="translate(-355.16 -62.27)"/><path class="cls-12" d="M890.33,252.93c3.48,2,7,3.95,10.7,5.66l.45.21-.14.47a13,13,0,0,1-1.57,3.3c-2,3.1-4.49,5.92-6.33,9.12a7.88,7.88,0,0,1,2.4.79,13.63,13.63,0,0,1,3.67,2.72,11,11,0,0,1,3.18,9.85c-3.48,17.88-24,17.17-36.83,9.95h0l-.39-.23-.38-.22h0c-12.46-7.79-22.9-25.51-8.85-37.11a11,11,0,0,1,10.17-1.91,13.37,13.37,0,0,1,4.14,1.92,8,8,0,0,1,1.85,1.73c1.93-3.14,3.22-6.67,5-9.91a13.34,13.34,0,0,1,2.15-3l.35-.35.4.3q4.88,3.59,10.09,6.7Z" transform="translate(-355.16 -62.27)"/><path class="cls-13" d="M902.13,284.94c-.77,3.93-3.67,7.86-7.16,10.43-7.89,5.81-19.45,2.95-28.12-2h0l-.36-.21-.06,0-.35-.21h0c-8.52-5.24-16.55-14-15.22-23.73.59-4.29,2.65-8.72,5.75-11.27,5.95-4.92,14.53-.67,15.76,2.4,2.23-3.34,3.57-7.16,5.52-10.73a12,12,0,0,1,2-2.83c3.13,2.3,6.53,4.56,10.14,6.73s7.23,4,10.75,5.69a12.46,12.46,0,0,1-1.51,3.15c-2.21,3.42-4.92,6.42-6.79,10,3.29-.39,11.11,5.12,9.64,12.7Zm-35.28,8.4c-.12-.08-.25-.15-.38-.22" transform="translate(-355.16 -62.27)"/><path class="cls-14" d="M899.29,258.39l1.5.72a12.75,12.75,0,0,1-1.5,3.15c-2.22,3.42-4.93,6.42-6.8,10a4.88,4.88,0,0,1,2,.32l0,0c2.76,1,5.67,3.7,5.51,6.28a6.1,6.1,0,0,1-3.67,4.88c-3.6,1.26-7.76-.48-10-3.22h0l12.93-22.13Z" transform="translate(-355.16 -62.27)"/><path class="cls-15" d="M891.64,282a21.74,21.74,0,0,1-5.28-1.44c.57-1.1,1.6-2.84,2.25-3.85a6.86,6.86,0,0,0,2.93,1.71,3.06,3.06,0,0,0,1.71-.12c1.94-.75,1.63-2.55-.57-2.16,1.38-2.38,4.25-.85,4.89.69.84,2-.53,5.27-5.93,5.17Z" transform="translate(-355.16 -62.27)"/><path class="cls-11" d="M888.19,277.34l.42-.67a6.86,6.86,0,0,0,2.93,1.71c1,.21,2.63-.12,3-1.22-.25,1.69-1.12,2.15-2.2,2.11a5.46,5.46,0,0,1-4.11-1.93Z" transform="translate(-355.16 -62.27)"/><path class="cls-14" d="M881.24,247.66l-1.34-1a12,12,0,0,0-2,2.83c-2,3.57-3.29,7.39-5.52,10.73a4.72,4.72,0,0,0-1.26-1.65v0c-2.15-2-5.95-3.22-8.14-1.85a6.13,6.13,0,0,0-2.54,5.56c.61,3.77,4.14,6.59,7.6,7.23h0l13.26-21.93Z" transform="translate(-355.16 -62.27)"/><path class="cls-15" d="M864.19,265.64a21.69,21.69,0,0,0,3.79,3.95c.69-1,1.73-2.77,2.31-3.82a6.91,6.91,0,0,1-2.9-1.75,3,3,0,0,1-.71-1.56c-.27-2.06,1.45-2.65,2.16-.53,1.43-2.35-1.28-4.15-2.94-4-2.19.24-4.37,3-1.71,7.68Z" transform="translate(-355.16 -62.27)"/><path class="cls-11" d="M869.9,266.46l.39-.69a6.91,6.91,0,0,1-2.9-1.75c-.65-.75-1.15-2.37-.34-3.18-1.37,1-1.36,2-.81,2.93a5.39,5.39,0,0,0,3.66,2.69Z" transform="translate(-355.16 -62.27)"/><path class="cls-16" d="M901.89,282.6c-2,11.42-9,13.79-14.29,14.52-6.21.84-13.59-1.19-20.1-4.88h0l-.41-.25-.41-.23h0c-6.35-4-11.65-9.47-13.88-15.33-1.91-5-3.16-12.29,5.93-19.49-10,11.77-1.45,24.08,10.39,30.72v0l.4.26.42.22,0,0c11.49,7.23,26.39,8.87,31.95-5.54Z" transform="translate(-355.16 -62.27)"/><path class="cls-16" d="M893,256.25l-3.07-1.74-3-1.87c-3.82,7.52-8.24,14.21-14.89,19.71l4.51,2.8v0l.82.46.81.51,0,0,4.62,2.63c1.65-8.47,5.42-15.55,10.2-22.5Z" transform="translate(-355.16 -62.27)"/><path class="cls-11" d="M720.76,347.29c.29.12.58.25.86.39a14.59,14.59,0,0,1,4,3,12.38,12.38,0,0,1,3.55,11.07c-1,5.26-3.63,9.79-8.24,12.67-18,11.26-49-7.2-47.7-28.36.33-5.43,3.06-9.88,7.19-13.29a12.43,12.43,0,0,1,11.43-2.18,14.83,14.83,0,0,1,4.58,2.13l.75.57c1.45-2.7,2.58-5.59,4-8.28a14.52,14.52,0,0,1,2.39-3.28l1.19-1.19a138.06,138.06,0,0,0,23.46,13.94l-.48,1.62a14.54,14.54,0,0,1-1.74,3.67c-1.67,2.57-3.67,5-5.34,7.51Z" transform="translate(-355.16 -62.27)"/><path class="cls-12" d="M715.49,329.37c3.47,2.06,7,3.95,10.7,5.67l.45.21-.14.47a12.69,12.69,0,0,1-1.58,3.3c-2,3.1-4.48,5.92-6.32,9.12a7.88,7.88,0,0,1,2.4.79,13.63,13.63,0,0,1,3.67,2.72,11,11,0,0,1,3.18,9.84c-3.48,17.89-24,17.18-36.83,10h0l-.38-.23-.38-.22h0c-12.46-7.78-22.9-25.5-8.85-37.11a11.07,11.07,0,0,1,10.17-1.9,13.47,13.47,0,0,1,4.14,1.92,8.37,8.37,0,0,1,1.85,1.73c1.93-3.14,3.22-6.67,5-9.91a13.34,13.34,0,0,1,2.15-3l.35-.35.4.29q4.88,3.6,10.09,6.7Z" transform="translate(-355.16 -62.27)"/><path class="cls-13" d="M727.29,361.38c-.77,3.94-3.67,7.87-7.16,10.44-7.89,5.8-19.45,2.94-28.12-2h0l-.36-.22-.06,0-.35-.21h0c-8.52-5.24-16.55-14-15.22-23.73.59-4.3,2.65-8.72,5.75-11.27,5.95-4.92,14.52-.67,15.76,2.4,2.23-3.35,3.57-7.16,5.52-10.73a12.3,12.3,0,0,1,2-2.84c3.13,2.31,6.53,4.57,10.14,6.73s7.23,4.05,10.75,5.69a12.35,12.35,0,0,1-1.51,3.16c-2.21,3.42-4.92,6.42-6.79,10,3.29-.38,11.11,5.13,9.64,12.7ZM692,369.78l-.38-.22" transform="translate(-355.16 -62.27)"/><path class="cls-14" d="M724.45,334.84l1.5.71a12.35,12.35,0,0,1-1.51,3.16c-2.21,3.42-4.92,6.42-6.79,10a4.88,4.88,0,0,1,2.05.32l0,0c2.76,1,5.67,3.7,5.51,6.27a6.1,6.1,0,0,1-3.67,4.89c-3.6,1.26-7.76-.49-10-3.22h0l12.93-22.13Z" transform="translate(-355.16 -62.27)"/><path class="cls-15" d="M716.8,358.41a21.74,21.74,0,0,1-5.28-1.44c.57-1.1,1.6-2.84,2.25-3.85a6.86,6.86,0,0,0,2.93,1.71,3.06,3.06,0,0,0,1.71-.12c1.94-.76,1.63-2.55-.57-2.16,1.38-2.38,4.25-.85,4.89.69.84,2-.53,5.27-5.93,5.17Z" transform="translate(-355.16 -62.27)"/><path class="cls-11" d="M713.35,353.79c.15-.25.3-.48.42-.67a6.86,6.86,0,0,0,2.93,1.71c1,.21,2.63-.12,3-1.22-.26,1.69-1.12,2.15-2.2,2.1a5.4,5.4,0,0,1-4.11-1.92Z" transform="translate(-355.16 -62.27)"/><path class="cls-14" d="M706.4,324.11l-1.34-1a12.3,12.3,0,0,0-2,2.84c-2,3.57-3.29,7.38-5.52,10.73a4.72,4.72,0,0,0-1.26-1.65v.05c-2.15-2-6-3.22-8.14-1.85a6.12,6.12,0,0,0-2.54,5.56c.61,3.77,4.14,6.59,7.6,7.23h0l13.26-21.93Z" transform="translate(-355.16 -62.27)"/><path class="cls-15" d="M689.34,342.09a22.39,22.39,0,0,0,3.79,4c.7-1,1.74-2.77,2.32-3.82a6.72,6.72,0,0,1-2.9-1.76,2.85,2.85,0,0,1-.71-1.55c-.27-2.07,1.45-2.65,2.16-.53,1.43-2.35-1.28-4.15-2.94-4-2.19.24-4.37,3-1.72,7.68Z" transform="translate(-355.16 -62.27)"/><path class="cls-11" d="M695.06,342.91l.39-.69a6.78,6.78,0,0,1-2.9-1.76c-.65-.75-1.16-2.36-.34-3.17-1.37,1-1.36,2-.81,2.93a5.42,5.42,0,0,0,3.66,2.69Z" transform="translate(-355.16 -62.27)"/><path class="cls-16" d="M727.05,359.05c-2,11.42-9,13.79-14.29,14.51-6.21.85-13.59-1.18-20.1-4.87h0l-.41-.25-.41-.24h0c-6.35-4-11.66-9.47-13.88-15.33-1.91-5-3.16-12.29,5.93-19.49-10,11.77-1.45,24.08,10.38,30.72l0,0,.4.26.42.22,0,0c11.49,7.23,26.39,8.87,31.95-5.54Z" transform="translate(-355.16 -62.27)"/><path class="cls-16" d="M718.1,332.7,715,331l-3-1.87c-3.82,7.52-8.24,14.2-14.89,19.7l4.51,2.81,0,0,.83.46.81.51,0,0,4.62,2.63c1.65-8.48,5.42-15.55,10.19-22.5Z" transform="translate(-355.16 -62.27)"/><path class="cls-11" d="M776.76,542.29c.29.12.58.25.86.39a14.59,14.59,0,0,1,4,3,12.38,12.38,0,0,1,3.55,11.07c-1,5.26-3.63,9.79-8.24,12.67-18,11.26-49-7.2-47.7-28.36.33-5.43,3.06-9.88,7.19-13.29a12.43,12.43,0,0,1,11.43-2.18,14.83,14.83,0,0,1,4.58,2.13l.75.57c1.45-2.7,2.58-5.59,4-8.28a14.52,14.52,0,0,1,2.39-3.28l1.19-1.19a138.06,138.06,0,0,0,23.46,13.94l-.48,1.62a14.54,14.54,0,0,1-1.74,3.67c-1.67,2.57-3.67,5-5.34,7.51Z" transform="translate(-355.16 -62.27)"/><path class="cls-12" d="M771.49,524.37c3.47,2.06,7,4,10.7,5.67l.45.21-.14.47a12.69,12.69,0,0,1-1.58,3.3c-2,3.1-4.48,5.92-6.32,9.12a7.88,7.88,0,0,1,2.4.79,13.63,13.63,0,0,1,3.67,2.72,11,11,0,0,1,3.18,9.84c-3.48,17.89-24,17.18-36.83,10h0l-.38-.23-.38-.22h0c-12.46-7.78-22.9-25.5-8.85-37.11a11.07,11.07,0,0,1,10.17-1.9,13.47,13.47,0,0,1,4.14,1.92,8.37,8.37,0,0,1,1.85,1.73c1.93-3.14,3.22-6.67,5-9.91a13.34,13.34,0,0,1,2.15-3l.35-.35.4.29q4.88,3.6,10.09,6.7Z" transform="translate(-355.16 -62.27)"/><path class="cls-13" d="M783.29,556.38c-.77,3.94-3.67,7.87-7.16,10.44-7.89,5.8-19.45,2.94-28.12-2h0l-.36-.22-.06,0-.35-.21h0c-8.52-5.24-16.55-14-15.22-23.73.59-4.3,2.65-8.72,5.75-11.27,5.95-4.92,14.52-.67,15.76,2.4,2.23-3.35,3.57-7.16,5.52-10.73a12.3,12.3,0,0,1,2-2.84c3.13,2.31,6.53,4.57,10.14,6.73s7.23,4,10.75,5.69a12.35,12.35,0,0,1-1.51,3.16c-2.21,3.42-4.92,6.42-6.79,10,3.29-.38,11.11,5.13,9.64,12.7ZM748,564.78l-.38-.22" transform="translate(-355.16 -62.27)"/><path class="cls-14" d="M780.45,529.84l1.5.71a12.35,12.35,0,0,1-1.51,3.16c-2.21,3.42-4.92,6.42-6.79,10a4.88,4.88,0,0,1,2.05.32l0,0c2.76,1,5.67,3.7,5.51,6.27a6.1,6.1,0,0,1-3.67,4.89c-3.6,1.26-7.76-.49-10-3.22h0l12.93-22.13Z" transform="translate(-355.16 -62.27)"/><path class="cls-15" d="M772.8,553.41a21.74,21.74,0,0,1-5.28-1.44c.57-1.1,1.6-2.84,2.25-3.85a6.86,6.86,0,0,0,2.93,1.71,3.06,3.06,0,0,0,1.71-.12c1.94-.76,1.63-2.55-.57-2.16,1.38-2.38,4.25-.85,4.89.69.84,2-.53,5.27-5.93,5.17Z" transform="translate(-355.16 -62.27)"/><path class="cls-11" d="M769.35,548.79c.15-.25.3-.48.42-.67a6.86,6.86,0,0,0,2.93,1.71c1,.21,2.63-.12,3-1.22-.26,1.69-1.12,2.15-2.2,2.1a5.4,5.4,0,0,1-4.11-1.92Z" transform="translate(-355.16 -62.27)"/><path class="cls-14" d="M762.4,519.11l-1.34-1a12.3,12.3,0,0,0-2,2.84c-2,3.57-3.29,7.38-5.52,10.73a4.72,4.72,0,0,0-1.26-1.65v.05c-2.15-2-6-3.22-8.14-1.85a6.12,6.12,0,0,0-2.54,5.56c.61,3.77,4.14,6.59,7.6,7.23h0l13.26-21.93Z" transform="translate(-355.16 -62.27)"/><path class="cls-15" d="M745.34,537.09a22.39,22.39,0,0,0,3.79,3.95c.7-1,1.74-2.77,2.32-3.82a6.72,6.72,0,0,1-2.9-1.76,2.85,2.85,0,0,1-.71-1.55c-.27-2.07,1.45-2.65,2.16-.53,1.43-2.35-1.28-4.15-2.94-4-2.19.24-4.37,3-1.72,7.68Z" transform="translate(-355.16 -62.27)"/><path class="cls-11" d="M751.06,537.91l.39-.69a6.78,6.78,0,0,1-2.9-1.76c-.65-.75-1.16-2.36-.34-3.17-1.37,1-1.36,2-.81,2.93a5.42,5.42,0,0,0,3.66,2.69Z" transform="translate(-355.16 -62.27)"/><path class="cls-16" d="M783.05,554.05c-2,11.42-9,13.79-14.29,14.51-6.21.85-13.59-1.18-20.1-4.87h0l-.41-.25-.41-.24h0c-6.35-4-11.66-9.47-13.88-15.33-1.91-5-3.16-12.29,5.93-19.49-10,11.77-1.45,24.08,10.38,30.72l0,0,.4.26.42.22,0,0c11.49,7.23,26.39,8.87,31.95-5.54Z" transform="translate(-355.16 -62.27)"/><path class="cls-16" d="M774.1,527.7,771,526l-3-1.87c-3.82,7.52-8.24,14.2-14.89,19.7l4.51,2.81,0,0,.83.46.81.51,0,0,4.62,2.63c1.65-8.48,5.42-15.55,10.19-22.5Z" transform="translate(-355.16 -62.27)"/><path class="cls-11" d="M496.64,318.63c0,.32,0,.64,0,.95a14.89,14.89,0,0,1-1.18,4.91,12.38,12.38,0,0,1-8.79,7.61c-5.24,1.13-10.43.51-14.89-2.6-17.42-12.14-12.61-47.88,7.35-55,5.12-1.83,10.28-1.06,15,1.4a12.38,12.38,0,0,1,6.49,9.65,14.71,14.71,0,0,1-.15,5c-.07.31-.14.61-.24.92,3.06.28,6.16.18,9.21.47a14.46,14.46,0,0,1,3.95.91l1.57.63a137.78,137.78,0,0,0-3.6,27.05l-1.69.19a14.1,14.1,0,0,1-4.05-.16c-3-.52-6-1.42-9-2Z" transform="translate(-355.16 -62.27)"/><path class="cls-12" d="M511.05,306.75q-.78,6-1,12.07l0,.49-.49.06a13.14,13.14,0,0,1-3.65-.15c-3.64-.63-7.21-1.81-10.87-2.24a8.07,8.07,0,0,1,.21,2.52,13.3,13.3,0,0,1-1.06,4.44,11,11,0,0,1-7.8,6.8c-17.82,3.82-25.24-15.36-23.62-30h0v0h0l.06-.44.06-.45h0c2.27-14.51,14.46-31.08,30.66-22.71a11,11,0,0,1,5.74,8.6,13.44,13.44,0,0,1-.14,4.56,7.78,7.78,0,0,1-.87,2.38c3.65.54,7.41.34,11.08.69a13.31,13.31,0,0,1,3.57.81l.45.19-.11.48c-.93,3.93-1.65,7.91-2.2,11.91Z" transform="translate(-355.16 -62.27)"/><path class="cls-13" d="M486.25,330.18c-3.92.84-8.67-.29-12.41-2.49-8.44-5-10.35-16.73-9.17-26.66h0c0-.14,0-.28.05-.41v-.07c0-.13,0-.27,0-.41h0c1.48-9.89,6.4-20.74,15.85-23.32,4.18-1.14,9.06-1,12.62.86,6.86,3.54,6.32,13.09,4,15.44,4,.74,8,.46,12,.85a12.24,12.24,0,0,1,3.41.78c-.89,3.78-1.63,7.79-2.21,12s-.87,8.24-1,12.13a12.13,12.13,0,0,1-3.5-.15c-4-.69-7.83-2-11.84-2.33,1.64,2.88-.34,12.23-7.89,13.86ZM464.67,301c0-.14,0-.29.05-.43" transform="translate(-355.16 -62.27)"/><path class="cls-14" d="M509.54,317.14l-.06,1.66a12.13,12.13,0,0,1-3.5-.15c-4-.69-7.83-2-11.84-2.33a4.8,4.8,0,0,1,.52,2l-.05,0c.21,2.91-1.17,6.66-3.6,7.53a6.12,6.12,0,0,1-5.94-1.46c-2.57-2.81-2.6-7.33-1-10.44h0l25.43,3.2Z" transform="translate(-355.16 -62.27)"/><path class="cls-15" d="M484.86,319.37a22.31,22.31,0,0,1-.75-5.43c1.24.1,3.25.36,4.43.56a6.86,6.86,0,0,0-.42,3.36,3,3,0,0,0,.78,1.52c1.46,1.49,3,.5,1.76-1.37,2.73.34,2.46,3.58,1.29,4.77-1.55,1.58-5.05,1.59-7.09-3.41Z" transform="translate(-355.16 -62.27)"/><path class="cls-11" d="M487.76,314.38l.78.12a6.86,6.86,0,0,0-.42,3.36c.19,1,1.14,2.37,2.28,2.24-1.65.43-2.42-.18-2.8-1.19a5.42,5.42,0,0,1,.16-4.53Z" transform="translate(-355.16 -62.27)"/><path class="cls-14" d="M512.32,296.32c.12-.54.25-1.08.37-1.61a12.24,12.24,0,0,0-3.41-.78c-4-.39-8.08-.11-12-.85a4.84,4.84,0,0,0,1-1.81h0c1-2.75.62-6.74-1.5-8.21a6.11,6.11,0,0,0-6.11-.15c-3.23,2-4.44,6.39-3.67,9.82h0l25.38,3.58Z" transform="translate(-355.16 -62.27)"/><path class="cls-15" d="M489.09,287.7a22.21,22.21,0,0,0-2.15,5c1.22.23,3.23.51,4.42.62a6.89,6.89,0,0,1,.48-3.35,2.83,2.83,0,0,1,1.15-1.26c1.8-1.06,3,.29,1.34,1.78,2.72.39,3.31-2.81,2.49-4.26-1.08-1.93-4.46-2.86-7.73,1.43Z" transform="translate(-355.16 -62.27)"/><path class="cls-11" d="M490.58,293.28l.78.08a6.89,6.89,0,0,1,.48-3.35c.43-.89,1.72-2,2.79-1.56-1.48-.85-2.38-.46-3,.41a5.39,5.39,0,0,0-1,4.42Z" transform="translate(-355.16 -62.27)"/><path class="cls-16" d="M488.3,329c-11.28,2.66-16.2-2.83-19-7.44-3.21-5.38-4.25-13-3.41-20.4h0c0-.15,0-.31.07-.47a4,4,0,0,1,.06-.47h0c1.15-7.39,4.13-14.43,8.65-18.78,3.87-3.73,10.05-7.73,20.25-2.2-14.76-4.59-22.71,8.12-24.17,21.61h0c0,.15-.05.31-.08.47s0,.31,0,.47h0c-2.14,13.41,2.21,27.76,17.64,27.21Z" transform="translate(-355.16 -62.27)"/><path class="cls-16" d="M509,310.46l.4-3.51.53-3.49c-8.41-.56-16.29-2-24-6l-.81,5.26h0l-.11.95-.14.94h0l-.59,5.29c8.44-1.81,16.42-1.13,24.69.53Z" transform="translate(-355.16 -62.27)"/><path class="cls-11" d="M589.64,407.09c0,.32,0,.63,0,1a14.82,14.82,0,0,1-1.17,4.9,12.4,12.4,0,0,1-8.79,7.61c-5.24,1.13-10.43.51-14.89-2.59-17.43-12.14-12.62-47.89,7.34-55,5.12-1.82,10.29-1.06,15,1.4a12.43,12.43,0,0,1,6.49,9.65,14.77,14.77,0,0,1-.16,5.05c-.06.3-.14.61-.23.91,3,.28,6.15.19,9.2.48a14.51,14.51,0,0,1,4,.9L608,382A137.89,137.89,0,0,0,604.38,409l-1.68.2a14.55,14.55,0,0,1-4.06-.16c-3-.52-6-1.43-9-2Z" transform="translate(-355.16 -62.27)"/><path class="cls-12" d="M604,395.2q-.78,6-1,12.07l0,.5-.48.05a12.83,12.83,0,0,1-3.66-.15c-3.64-.62-7.2-1.8-10.87-2.23a8,8,0,0,1,.22,2.52,13.62,13.62,0,0,1-1.07,4.44,11,11,0,0,1-7.8,6.79c-17.82,3.83-25.23-15.36-23.62-30h0l.06-.45.06-.44h0v0h0c2.27-14.51,14.46-31.08,30.65-22.71a11,11,0,0,1,5.74,8.6,13.49,13.49,0,0,1-.13,4.57,8.29,8.29,0,0,1-.87,2.37c3.65.55,7.4.35,11.07.7a12.85,12.85,0,0,1,3.57.81l.46.18-.12.48c-.92,3.93-1.65,7.91-2.2,11.91Z" transform="translate(-355.16 -62.27)"/><path class="cls-13" d="M579.24,418.63c-3.92.84-8.67-.29-12.4-2.49-8.44-5-10.35-16.72-9.18-26.65h0v0c0-.13,0-.27.05-.41V389l.06-.41v0h0c1.47-9.89,6.39-20.73,15.84-23.31,4.18-1.15,9.06-1,12.63.85,6.86,3.54,6.32,13.1,4,15.44,4,.74,8,.47,12,.86a12.33,12.33,0,0,1,3.41.77c-.89,3.79-1.64,7.8-2.21,12s-.87,8.24-1,12.12a12.38,12.38,0,0,1-3.49-.14c-4-.69-7.84-2-11.84-2.34,1.64,2.88-.35,12.24-7.9,13.86Zm-21.58-29.14c0-.15,0-.29.05-.44" transform="translate(-355.16 -62.27)"/><path class="cls-14" d="M602.54,405.6c0,.55,0,1.11-.07,1.65a12.38,12.38,0,0,1-3.49-.14c-4-.69-7.84-2-11.84-2.34a4.82,4.82,0,0,1,.51,2l0,0c.2,2.91-1.17,6.67-3.61,7.53a6.08,6.08,0,0,1-5.93-1.45c-2.58-2.82-2.61-7.33-1-10.44h0l25.43,3.2Z" transform="translate(-355.16 -62.27)"/><path class="cls-15" d="M577.86,407.82a21.82,21.82,0,0,1-.75-5.42c1.23.09,3.24.35,4.43.55a6.69,6.69,0,0,0-.42,3.37,3,3,0,0,0,.77,1.52c1.46,1.49,3,.5,1.76-1.37,2.74.34,2.46,3.58,1.29,4.77-1.54,1.57-5.05,1.58-7.08-3.42Z" transform="translate(-355.16 -62.27)"/><path class="cls-11" d="M580.75,402.83l.79.12a6.69,6.69,0,0,0-.42,3.37c.18,1,1.13,2.37,2.28,2.24-1.65.43-2.42-.19-2.8-1.19a5.44,5.44,0,0,1,.15-4.54Z" transform="translate(-355.16 -62.27)"/><path class="cls-14" d="M605.32,384.78c.12-.55.24-1.08.37-1.62a12.33,12.33,0,0,0-3.41-.77c-4-.39-8.09-.12-12-.86a4.9,4.9,0,0,0,1-1.81h-.06c1-2.75.62-6.73-1.5-8.21a6.13,6.13,0,0,0-6.11-.15c-3.22,2-4.43,6.39-3.66,9.83h0l25.38,3.58Z" transform="translate(-355.16 -62.27)"/><path class="cls-15" d="M582.09,376.16a21.68,21.68,0,0,0-2.15,5c1.21.24,3.22.51,4.42.63a6.8,6.8,0,0,1,.47-3.36A3,3,0,0,1,586,377.2c1.79-1.06,3,.3,1.33,1.78,2.73.39,3.31-2.81,2.5-4.26-1.08-1.93-4.46-2.85-7.73,1.44Z" transform="translate(-355.16 -62.27)"/><path class="cls-11" d="M583.57,381.73l.79.09a6.8,6.8,0,0,1,.47-3.36c.44-.89,1.72-2,2.79-1.56-1.48-.85-2.38-.46-3,.42a5.37,5.37,0,0,0-1,4.41Z" transform="translate(-355.16 -62.27)"/><path class="cls-16" d="M581.3,417.49c-11.29,2.66-16.21-2.82-19-7.44-3.22-5.38-4.25-13-3.42-20.39h0c0-.16.05-.32.07-.47l.06-.47h0c1.14-7.39,4.13-14.44,8.64-18.79,3.87-3.73,10.06-7.73,20.25-2.2-14.75-4.59-22.71,8.13-24.17,21.62h0c0,.16-.06.32-.08.47s0,.32-.05.47h0c-2.13,13.4,2.21,27.76,17.65,27.2Z" transform="translate(-355.16 -62.27)"/><path class="cls-16" d="M602,398.92l.4-3.51.54-3.49c-8.42-.56-16.3-2-24-6l-.81,5.25h0l-.1.94-.15.94h0l-.6,5.28c8.44-1.81,16.43-1.13,24.69.54Z" transform="translate(-355.16 -62.27)"/><path class="cls-11" d="M793.64,290.09c0,.32,0,.63,0,1a14.82,14.82,0,0,1-1.17,4.9,12.4,12.4,0,0,1-8.79,7.61c-5.24,1.13-10.43.51-14.89-2.59-17.43-12.14-12.62-47.89,7.34-55,5.12-1.82,10.29-1.06,15,1.4a12.43,12.43,0,0,1,6.49,9.65,14.77,14.77,0,0,1-.16,5.05c-.06.3-.14.61-.23.91,3,.28,6.15.19,9.2.48a14.51,14.51,0,0,1,4,.9L812,265A137.89,137.89,0,0,0,808.38,292l-1.68.2a14.55,14.55,0,0,1-4.06-.16c-3-.52-6-1.43-9-2Z" transform="translate(-355.16 -62.27)"/><path class="cls-12" d="M808,278.2q-.78,6-1,12.07l0,.5-.48.05a12.83,12.83,0,0,1-3.66-.15c-3.64-.62-7.2-1.8-10.87-2.23a8,8,0,0,1,.22,2.52,13.62,13.62,0,0,1-1.07,4.44,11,11,0,0,1-7.8,6.79c-17.82,3.83-25.23-15.36-23.62-30h0l.06-.45.06-.44h0v0h0c2.27-14.51,14.46-31.08,30.65-22.71a11,11,0,0,1,5.74,8.6,13.49,13.49,0,0,1-.13,4.57,8.29,8.29,0,0,1-.87,2.37c3.65.55,7.4.35,11.07.7a12.85,12.85,0,0,1,3.57.81l.46.18-.12.48c-.92,3.93-1.65,7.91-2.2,11.91Z" transform="translate(-355.16 -62.27)"/><path class="cls-13" d="M783.24,301.63c-3.92.84-8.67-.29-12.4-2.49-8.44-5-10.35-16.72-9.18-26.65h0v0c0-.13,0-.27.05-.41V272l.06-.41v0h0c1.47-9.89,6.39-20.73,15.84-23.31,4.18-1.15,9.06-1,12.63.85,6.86,3.54,6.32,13.1,4,15.44,4,.74,8,.47,12,.86a12.33,12.33,0,0,1,3.41.77c-.89,3.79-1.64,7.8-2.21,12s-.87,8.24-1,12.12a12.38,12.38,0,0,1-3.49-.14c-4-.69-7.84-2-11.84-2.34,1.64,2.88-.35,12.24-7.9,13.86Zm-21.58-29.14c0-.15,0-.29.05-.44" transform="translate(-355.16 -62.27)"/><path class="cls-14" d="M806.54,288.6c0,.55,0,1.11-.07,1.65a12.38,12.38,0,0,1-3.49-.14c-4-.69-7.84-2-11.84-2.34a4.82,4.82,0,0,1,.51,2l0,0c.2,2.91-1.17,6.67-3.61,7.53a6.08,6.08,0,0,1-5.93-1.45c-2.58-2.82-2.61-7.33-1-10.44h0l25.43,3.2Z" transform="translate(-355.16 -62.27)"/><path class="cls-15" d="M781.86,290.82a21.82,21.82,0,0,1-.75-5.42c1.23.09,3.24.35,4.43.55a6.69,6.69,0,0,0-.42,3.37,3,3,0,0,0,.77,1.52c1.46,1.49,3,.5,1.76-1.37,2.74.34,2.46,3.58,1.29,4.77-1.54,1.57-5.05,1.58-7.08-3.42Z" transform="translate(-355.16 -62.27)"/><path class="cls-11" d="M784.75,285.83l.79.12a6.69,6.69,0,0,0-.42,3.37c.18,1,1.13,2.37,2.28,2.24-1.65.43-2.42-.19-2.8-1.19a5.44,5.44,0,0,1,.15-4.54Z" transform="translate(-355.16 -62.27)"/><path class="cls-14" d="M809.32,267.78c.12-.55.24-1.08.37-1.62a12.33,12.33,0,0,0-3.41-.77c-4-.39-8.09-.12-12-.86a4.9,4.9,0,0,0,1-1.81h-.06c1-2.75.62-6.73-1.5-8.21a6.13,6.13,0,0,0-6.11-.15c-3.22,2-4.43,6.39-3.66,9.83h0l25.38,3.58Z" transform="translate(-355.16 -62.27)"/><path class="cls-15" d="M786.09,259.16a21.68,21.68,0,0,0-2.15,5c1.21.24,3.22.51,4.42.63a6.8,6.8,0,0,1,.47-3.36A3,3,0,0,1,790,260.2c1.79-1.06,3,.3,1.33,1.78,2.73.39,3.31-2.81,2.5-4.26-1.08-1.93-4.46-2.85-7.73,1.44Z" transform="translate(-355.16 -62.27)"/><path class="cls-11" d="M787.57,264.73l.79.09a6.8,6.8,0,0,1,.47-3.36c.44-.89,1.72-2,2.79-1.56-1.48-.85-2.38-.46-3,.42a5.37,5.37,0,0,0-1,4.41Z" transform="translate(-355.16 -62.27)"/><path class="cls-16" d="M785.3,300.49c-11.29,2.66-16.21-2.82-19-7.44-3.22-5.38-4.25-13-3.42-20.39h0c0-.16.05-.32.07-.47l.06-.47h0c1.14-7.39,4.13-14.44,8.64-18.79,3.87-3.73,10.06-7.73,20.25-2.2-14.75-4.59-22.71,8.13-24.17,21.62h0c0,.16-.06.32-.08.47s0,.32-.05.47h0c-2.13,13.4,2.21,27.76,17.65,27.2Z" transform="translate(-355.16 -62.27)"/><path class="cls-16" d="M806,281.92l.4-3.51.54-3.49c-8.42-.56-16.3-2-24-6l-.81,5.25h0l-.1.94-.15.94h0l-.6,5.28c8.44-1.81,16.43-1.13,24.69.54Z" transform="translate(-355.16 -62.27)"/><path class="cls-11" d="M719.46,455.88c-.23.22-.48.42-.72.62a14.82,14.82,0,0,1-4.46,2.36,12.37,12.37,0,0,1-11.52-1.55c-4.31-3.18-7.28-7.48-7.91-12.88-2.42-21.1,27.55-41.15,46.11-30.9,4.76,2.63,7.6,7,8.91,12.21A12.41,12.41,0,0,1,746.93,437a15.26,15.26,0,0,1-3.89,3.22c-.27.15-.55.3-.84.43,1.81,2.47,3.94,4.73,5.74,7.21a14.34,14.34,0,0,1,1.93,3.57l.57,1.59a138.08,138.08,0,0,0-22.67,15.2l-1.26-1.13a14.37,14.37,0,0,1-2.56-3.15c-1.61-2.61-2.89-5.43-4.49-8.05Z" transform="translate(-355.16 -62.27)"/><path class="cls-12" d="M737.91,458.82c-3.35,2.26-6.6,4.67-9.72,7.23l-.38.32-.36-.33a13.13,13.13,0,0,1-2.31-2.84c-1.94-3.14-3.42-6.6-5.52-9.63a8.21,8.21,0,0,1-1.74,1.83,13.53,13.53,0,0,1-4,2.14,11.05,11.05,0,0,1-10.25-1.35c-14.66-10.83-5.19-29.09,6.83-37.54h0l.38-.25.37-.25h0c12.39-7.91,32.87-9.73,37.31,7.95a11,11,0,0,1-2.64,10,13.46,13.46,0,0,1-3.51,2.92,8.11,8.11,0,0,1-2.36.92c2,3.1,4.64,5.78,6.81,8.76a13.23,13.23,0,0,1,1.75,3.22l.16.46-.43.23c-3.56,1.91-7,4-10.38,6.24Z" transform="translate(-355.16 -62.27)"/><path class="cls-13" d="M703.93,455.73c-3.23-2.39-5.52-6.69-6.35-11-1.85-9.62,5.69-18.83,13.91-24.52h0l.35-.23,0,0a4,4,0,0,0,.34-.23h0c8.39-5.44,19.78-8.92,28-3.54,3.62,2.37,6.73,6.13,7.71,10,1.88,7.49-5.64,13.4-8.94,13.2,2.06,3.45,4.93,6.3,7.32,9.59a12.24,12.24,0,0,1,1.68,3.07c-3.43,1.84-6.93,3.93-10.43,6.26s-6.76,4.8-9.76,7.27a12.21,12.21,0,0,1-2.2-2.71c-2.14-3.47-3.68-7.21-6.09-10.43-1.07,3.14-9.4,7.84-15.61,3.26Zm7.56-35.47.37-.25" transform="translate(-355.16 -62.27)"/><path class="cls-14" d="M729.12,464.57c-.44.34-.87.69-1.29,1a12.21,12.21,0,0,1-2.2-2.71c-2.14-3.47-3.68-7.2-6.09-10.43a4.74,4.74,0,0,1-1.17,1.72v-.05c-2.05,2.08-5.77,3.54-8,2.28A6.09,6.09,0,0,1,707.5,451c.4-3.79,3.77-6.8,7.19-7.63h0l14.43,21.19Z" transform="translate(-355.16 -62.27)"/><path class="cls-15" d="M711.11,447.53a22.68,22.68,0,0,1,3.57-4.15c.75,1,1.89,2.67,2.52,3.69a6.82,6.82,0,0,0-2.8,1.91,3,3,0,0,0-.63,1.59c-.15,2.08,1.6,2.57,2.19.41,1.56,2.28-1.05,4.22-2.71,4.13-2.21-.12-4.54-2.74-2.14-7.58Z" transform="translate(-355.16 -62.27)"/><path class="cls-11" d="M716.77,446.4c.16.24.31.47.43.67a6.82,6.82,0,0,0-2.8,1.91c-.61.79-1,2.42-.17,3.19-1.42-.95-1.46-1.93-1-2.88a5.41,5.41,0,0,1,3.5-2.89Z" transform="translate(-355.16 -62.27)"/><path class="cls-14" d="M746.56,452.87l1.46-.79a12.24,12.24,0,0,0-1.68-3.07c-2.39-3.29-5.26-6.14-7.32-9.59a4.91,4.91,0,0,0,2-.43l0,0c2.7-1.1,5.46-4,5.16-6.56a6.12,6.12,0,0,0-3.93-4.68c-3.66-1.07-7.72.91-9.79,3.75h0l14.11,21.4Z" transform="translate(-355.16 -62.27)"/><path class="cls-15" d="M737.65,429.75a22.24,22.24,0,0,0-5.2,1.72c.63,1.07,1.76,2.76,2.46,3.73a6.77,6.77,0,0,1,2.83-1.86,3,3,0,0,1,1.71,0c2,.65,1.77,2.46-.45,2.19,1.51,2.3,4.3.62,4.85-.95.72-2.09-.82-5.24-6.2-4.85Z" transform="translate(-355.16 -62.27)"/><path class="cls-11" d="M734.45,434.55l.46.65a6.77,6.77,0,0,1,2.83-1.86c1-.27,2.63,0,3,1.06-.35-1.68-1.23-2.1-2.31-2a5.44,5.44,0,0,0-4,2.14Z" transform="translate(-355.16 -62.27)"/><path class="cls-16" d="M706.14,456.51c-9.46-6.7-8.6-14-7-19.14,1.91-6,6.91-11.76,13-16.05h0l.39-.26.39-.27h0c6.3-4,13.56-6.46,19.8-6,5.36.43,12.45,2.42,15.05,13.72-6.32-14.09-21.12-11.64-32.2-3.81l0,0-.4.25c-.13.09-.26.18-.38.28l0,0c-11.46,7.27-19.35,20-8.72,31.23Z" transform="translate(-355.16 -62.27)"/><path class="cls-16" d="M733.77,459.75l2.9-2,3-1.91c-5.14-6.68-9.28-13.54-11.39-21.91l-4.48,2.87,0,0-.78.54-.8.51,0,0-4.35,3.05c6.94,5.13,11.71,11.57,15.93,18.86Z" transform="translate(-355.16 -62.27)"/><path class="cls-11" d="M691.21,279.25c-.23.22-.47.42-.72.62a14.65,14.65,0,0,1-4.45,2.36,12.39,12.39,0,0,1-11.53-1.55c-4.31-3.18-7.28-7.48-7.9-12.88-2.43-21.1,27.55-41.15,46.1-30.9,4.76,2.63,7.61,7,8.91,12.21a12.41,12.41,0,0,1-2.94,11.25,15.22,15.22,0,0,1-3.88,3.22c-.27.15-.56.3-.85.43,1.82,2.47,3.94,4.73,5.74,7.21a14.38,14.38,0,0,1,1.94,3.57l.57,1.59a137.24,137.24,0,0,0-22.67,15.2l-1.26-1.13a14.37,14.37,0,0,1-2.56-3.15c-1.61-2.61-2.9-5.43-4.5-8.05Z" transform="translate(-355.16 -62.27)"/><path class="cls-12" d="M709.66,282.19c-3.35,2.26-6.6,4.67-9.71,7.23l-.38.32-.37-.33a13.43,13.43,0,0,1-2.31-2.84c-1.93-3.14-3.41-6.6-5.51-9.63a8.25,8.25,0,0,1-1.75,1.83,13.47,13.47,0,0,1-4,2.14,11.07,11.07,0,0,1-10.26-1.35c-14.66-10.83-5.19-29.09,6.83-37.54h0l.37-.25.37-.25h0c12.38-7.9,32.87-9.72,37.31,8a11,11,0,0,1-2.65,10,13.15,13.15,0,0,1-3.51,2.92,7.9,7.9,0,0,1-2.36.92c2,3.1,4.64,5.78,6.81,8.76a12.9,12.9,0,0,1,1.75,3.22l.17.46L720,276c-3.56,1.91-7,4-10.38,6.24Z" transform="translate(-355.16 -62.27)"/><path class="cls-13" d="M675.68,279.1c-3.23-2.39-5.52-6.69-6.34-11-1.86-9.62,5.69-18.83,13.91-24.52h0l.34-.23.06,0,.34-.23h0c8.39-5.44,19.78-8.92,28-3.54,3.63,2.37,6.74,6.13,7.71,10,1.89,7.48-5.63,13.4-8.94,13.2,2.07,3.45,4.94,6.3,7.33,9.59a12.18,12.18,0,0,1,1.67,3.07c-3.42,1.84-6.93,3.93-10.43,6.26s-6.76,4.8-9.76,7.27a12.5,12.5,0,0,1-2.2-2.71c-2.14-3.47-3.68-7.21-6.09-10.43-1.07,3.14-9.4,7.84-15.61,3.26Zm7.57-35.47.36-.25" transform="translate(-355.16 -62.27)"/><path class="cls-14" d="M700.87,287.94l-1.29,1a12.5,12.5,0,0,1-2.2-2.71c-2.14-3.47-3.68-7.21-6.09-10.43a4.7,4.7,0,0,1-1.16,1.72v-.05c-2,2.08-5.78,3.54-8,2.28a6.09,6.09,0,0,1-2.83-5.41c.4-3.79,3.77-6.8,7.19-7.63h0l14.43,21.19Z" transform="translate(-355.16 -62.27)"/><path class="cls-15" d="M682.87,270.9a22.3,22.3,0,0,1,3.57-4.15c.75,1,1.88,2.67,2.51,3.69a6.89,6.89,0,0,0-2.8,1.91,3,3,0,0,0-.62,1.59c-.16,2.08,1.6,2.57,2.19.41,1.55,2.28-1.06,4.22-2.72,4.13-2.21-.12-4.53-2.74-2.13-7.58Z" transform="translate(-355.16 -62.27)"/><path class="cls-11" d="M688.53,269.77l.42.67a6.89,6.89,0,0,0-2.8,1.91c-.61.78-1,2.42-.16,3.19-1.42-1-1.47-1.93-1-2.88a5.45,5.45,0,0,1,3.51-2.89Z" transform="translate(-355.16 -62.27)"/><path class="cls-14" d="M718.32,276.24l1.45-.79a12.18,12.18,0,0,0-1.67-3.07c-2.39-3.29-5.26-6.14-7.33-9.59a4.92,4.92,0,0,0,2-.43l0,0c2.71-1.1,5.47-4,5.17-6.56a6.12,6.12,0,0,0-3.93-4.68c-3.67-1.07-7.73.91-9.79,3.75h0l14.11,21.4Z" transform="translate(-355.16 -62.27)"/><path class="cls-15" d="M709.41,253.12a22.24,22.24,0,0,0-5.2,1.72c.63,1.07,1.75,2.76,2.46,3.73a6.7,6.7,0,0,1,2.83-1.86,3,3,0,0,1,1.71,0c2,.65,1.76,2.46-.46,2.19,1.52,2.3,4.3.62,4.85-.95.73-2.09-.81-5.24-6.19-4.85Z" transform="translate(-355.16 -62.27)"/><path class="cls-11" d="M706.21,257.92c.16.24.32.46.46.65a6.7,6.7,0,0,1,2.83-1.86c1-.27,2.62,0,3,1.06-.34-1.68-1.23-2.1-2.3-2a5.4,5.4,0,0,0-4,2.14Z" transform="translate(-355.16 -62.27)"/><path class="cls-16" d="M677.9,279.88c-9.47-6.7-8.61-14-7-19.14,1.91-6,6.91-11.76,13-16.05h0l.4-.26.39-.27h0c6.3-4,13.56-6.46,19.81-5.95,5.35.43,12.45,2.42,15.05,13.72-6.32-14.09-21.12-11.64-32.2-3.81l0,0-.41.25-.38.28,0,0c-11.46,7.27-19.35,20-8.71,31.23Z" transform="translate(-355.16 -62.27)"/><path class="cls-16" d="M705.53,283.12l2.89-2,3-1.91c-5.15-6.68-9.29-13.54-11.4-21.91l-4.47,2.87,0,0-.77.54-.8.51,0,0-4.36,3.05c6.95,5.13,11.72,11.57,15.94,18.86Z" transform="translate(-355.16 -62.27)"/><path class="cls-11" d="M845.21,525.25c-.23.22-.47.42-.72.62a14.65,14.65,0,0,1-4.45,2.36,12.39,12.39,0,0,1-11.53-1.55c-4.31-3.18-7.28-7.48-7.9-12.88-2.43-21.1,27.55-41.15,46.1-30.9,4.76,2.63,7.61,7,8.91,12.21a12.41,12.41,0,0,1-2.94,11.25,15.22,15.22,0,0,1-3.88,3.22c-.27.15-.56.3-.85.43,1.82,2.47,3.94,4.73,5.74,7.21a14.38,14.38,0,0,1,1.94,3.57l.57,1.59a137.24,137.24,0,0,0-22.67,15.2l-1.26-1.13a14.37,14.37,0,0,1-2.56-3.15c-1.61-2.61-2.9-5.43-4.5-8Z" transform="translate(-355.16 -62.27)"/><path class="cls-12" d="M863.66,528.19c-3.35,2.26-6.6,4.67-9.71,7.23l-.38.32-.37-.33a13.43,13.43,0,0,1-2.31-2.84c-1.93-3.14-3.41-6.6-5.51-9.63a8.25,8.25,0,0,1-1.75,1.83,13.47,13.47,0,0,1-4,2.14,11.07,11.07,0,0,1-10.26-1.35c-14.66-10.83-5.19-29.09,6.83-37.54h0l.37-.25.37-.25h0c12.38-7.9,32.87-9.72,37.31,8a11,11,0,0,1-2.65,10,13.15,13.15,0,0,1-3.51,2.92,7.9,7.9,0,0,1-2.36.92c2,3.1,4.64,5.78,6.81,8.76a12.9,12.9,0,0,1,1.75,3.22l.17.46L874,522c-3.56,1.91-7,4-10.38,6.24Z" transform="translate(-355.16 -62.27)"/><path class="cls-13" d="M829.68,525.1c-3.23-2.39-5.52-6.69-6.34-11-1.86-9.62,5.69-18.83,13.91-24.52h0l.34-.23.06,0,.34-.23h0c8.39-5.44,19.78-8.92,28-3.54,3.63,2.37,6.74,6.13,7.71,10,1.89,7.48-5.63,13.4-8.94,13.2,2.07,3.45,4.94,6.3,7.33,9.59a12.18,12.18,0,0,1,1.67,3.07c-3.42,1.84-6.93,3.93-10.43,6.26s-6.76,4.8-9.76,7.27a12.5,12.5,0,0,1-2.2-2.71c-2.14-3.47-3.68-7.21-6.09-10.43-1.07,3.14-9.4,7.84-15.61,3.26Zm7.57-35.47.36-.25" transform="translate(-355.16 -62.27)"/><path class="cls-14" d="M854.87,533.94l-1.29,1a12.5,12.5,0,0,1-2.2-2.71c-2.14-3.47-3.68-7.21-6.09-10.43a4.7,4.7,0,0,1-1.16,1.72v0c-2,2.08-5.78,3.54-8,2.28a6.09,6.09,0,0,1-2.83-5.41c.4-3.79,3.77-6.8,7.19-7.63h0l14.43,21.19Z" transform="translate(-355.16 -62.27)"/><path class="cls-15" d="M836.87,516.9a22.3,22.3,0,0,1,3.57-4.15c.75,1,1.88,2.67,2.51,3.69a6.89,6.89,0,0,0-2.8,1.91,3,3,0,0,0-.62,1.59c-.16,2.08,1.6,2.57,2.19.41,1.55,2.28-1.06,4.22-2.72,4.13-2.21-.12-4.53-2.74-2.13-7.58Z" transform="translate(-355.16 -62.27)"/><path class="cls-11" d="M842.53,515.77l.42.67a6.89,6.89,0,0,0-2.8,1.91c-.61.78-1,2.42-.16,3.19-1.42-.95-1.47-1.93-1-2.88a5.45,5.45,0,0,1,3.51-2.89Z" transform="translate(-355.16 -62.27)"/><path class="cls-14" d="M872.32,522.24l1.45-.79a12.18,12.18,0,0,0-1.67-3.07c-2.39-3.29-5.26-6.14-7.33-9.59a4.92,4.92,0,0,0,2-.43l0,0c2.71-1.1,5.47-4,5.17-6.56a6.12,6.12,0,0,0-3.93-4.68c-3.67-1.07-7.73.91-9.79,3.75h0l14.11,21.4Z" transform="translate(-355.16 -62.27)"/><path class="cls-15" d="M863.41,499.12a22.24,22.24,0,0,0-5.2,1.72c.63,1.07,1.75,2.76,2.46,3.73a6.7,6.7,0,0,1,2.83-1.86,3,3,0,0,1,1.71,0c2,.65,1.76,2.46-.46,2.19,1.52,2.3,4.3.62,4.85-.95.73-2.09-.81-5.24-6.19-4.85Z" transform="translate(-355.16 -62.27)"/><path class="cls-11" d="M860.21,503.92c.16.24.32.46.46.65a6.7,6.7,0,0,1,2.83-1.86c1-.27,2.62,0,3,1.06-.34-1.68-1.23-2.1-2.3-2a5.4,5.4,0,0,0-4,2.14Z" transform="translate(-355.16 -62.27)"/><path class="cls-16" d="M831.9,525.88c-9.47-6.7-8.61-14-7-19.14,1.91-6,6.91-11.76,13-16.05h0l.4-.26.39-.27h0c6.3-4,13.56-6.46,19.81-6,5.35.43,12.45,2.42,15.05,13.72-6.32-14.09-21.12-11.64-32.2-3.81l0,0-.41.25-.38.28,0,0c-11.46,7.27-19.35,20-8.71,31.23Z" transform="translate(-355.16 -62.27)"/><path class="cls-16" d="M859.53,529.12l2.89-2,3-1.91c-5.15-6.68-9.29-13.54-11.4-21.91l-4.47,2.87,0,0-.77.54-.8.51,0,0-4.36,3.05c6.95,5.13,11.72,11.57,15.94,18.86Z" transform="translate(-355.16 -62.27)"/></svg>