<svg id="Layer_1" data-name="Layer 1" xmlns="http://www.w3.org/2000/svg" viewBox="0 0 654.73 644.15"><defs><style>.cls-1{fill:#db7515;}.cls-1,.cls-10,.cls-11,.cls-2,.cls-3,.cls-4,.cls-5,.cls-6,.cls-7,.cls-8,.cls-9{fill-rule:evenodd;}.cls-2{fill:#ffbd0a;}.cls-3{fill:#f4b331;}.cls-4{fill:#eca63c;}.cls-5{fill:#e59b47;}.cls-6{fill:#cf6808;}.cls-7{fill:#a10307;}.cls-8{fill:#ea1c28;}.cls-9{fill:#f3ba3a;}.cls-10{fill:#fcda51;}.cls-11{fill:#f7cb49;}</style></defs><path class="cls-1" d="M670.17,70.87A335.78,335.78,0,0,1,789.56,87.32a326.17,326.17,0,0,1,99.34,53.46c57.11,45,98.63,108.84,114.24,180.08a289.16,289.16,0,0,1,6.59,52.76,324.67,324.67,0,0,1-6,72.82c-11.13,56.66-37,110.36-75,153.88C868.65,669.08,785.52,705.47,694.55,706.4c-75.82.77-150.67-18.45-212.61-63.22a296.92,296.92,0,0,1-124-248.44c1.91-79.88,32.88-158.55,86.13-218.15,58.66-65.65,138.3-102.14,226.1-105.72Z" transform="translate(-355.16 -62.27)"/><path class="cls-1" d="M667.47,62.56A336,336,0,0,1,786.86,79a326,326,0,0,1,99.35,53.47c57.11,45,98.62,108.84,114.24,180.07a289.16,289.16,0,0,1,6.59,52.76,324.09,324.09,0,0,1-6,72.82C989.93,494.79,964,548.49,926,592,866,660.77,782.83,697.16,691.86,698.09c-75.82.77-150.67-18.45-212.61-63.22a297,297,0,0,1-124-248.44c1.91-79.88,32.89-158.55,86.13-218.15C500,102.63,579.68,66.14,667.47,62.56Z" transform="translate(-355.16 -62.27)"/><path class="cls-2" d="M666.67,66.09A331.19,331.19,0,0,1,784.54,82.33a321.29,321.29,0,0,1,98,52.74c56.29,44.38,97.26,107.27,112.65,177.48a284.25,284.25,0,0,1,6.49,51.89c2.58,81.11-26.58,162.57-79.95,223.69-59.2,67.78-141.08,103.59-230.8,104.51-75,.77-148.88-18.1-210.17-62.4A292.3,292.3,0,0,1,358.67,385.73c1.88-78.86,32.48-156.57,85.05-215.41C501.57,105.56,580,69.63,666.67,66.09Z" transform="translate(-355.16 -62.27)"/><path class="cls-3" d="M669.08,70.78c-86,3.51-163.81,39.13-221.25,103.42-52.19,58.43-82.59,135.63-84.47,213.94a289.75,289.75,0,0,0,121,242.35c60.84,44,134.42,62.72,208.88,62,89-.91,170.21-36.38,229-103.66a319.26,319.26,0,0,0,42.51-62.39,326.37,326.37,0,0,0,14.93-33,323.08,323.08,0,0,0,21.93-126.7,281.62,281.62,0,0,0-6.43-51.41c-15.27-69.65-55.93-132-111.77-176.08A319.38,319.38,0,0,0,786.12,86.9a329.54,329.54,0,0,0-117-16.12Z" transform="translate(-355.16 -62.27)"/><path class="cls-4" d="M671.1,75.48C585.9,79,508.77,114.22,451.84,178c-51.77,58-81.92,134.54-83.78,212.21A286.74,286.74,0,0,0,487.84,630c60.38,43.65,133.44,62.19,207.34,61.43,88.19-.9,168.62-36,226.85-102.67A315.84,315.84,0,0,0,964.16,527c25.31-48.54,38.29-103.54,36.55-158.3a279,279,0,0,0-6.35-50.85c-15.13-69-55.45-130.84-110.77-174.46a316.45,316.45,0,0,0-96.42-51.89,326.6,326.6,0,0,0-116.07-16Z" transform="translate(-355.16 -62.27)"/><path class="cls-5" d="M669.55,80.17c-83.44,3.4-158.93,37.91-214.69,100.32-50.73,56.78-80.28,131.87-82.11,208A280.43,280.43,0,0,0,489.9,623c59.22,42.81,130.89,60.94,203.36,60.2,86.35-.88,165-35.2,222-100.48a310.06,310.06,0,0,0,41.27-60.56c24.79-47.55,37.52-101.43,35.81-155.08a272.66,272.66,0,0,0-6.22-49.7c-14.8-67.55-54.29-128.07-108.44-170.77A310,310,0,0,0,783.3,95.83,319.92,319.92,0,0,0,669.55,80.17Z" transform="translate(-355.16 -62.27)"/><path class="cls-6" d="M669.14,96.14c36.58-1.5,80.13-6.69,115.29,4.94,32.69,10.82,54.35,37,80.53,57.64,26,20.53,59,35.56,77.14,64.53,10.11,16.19,14.61,36.39,17.88,55,2.44,13.84,4.23,27.9,7.24,41.63a259.4,259.4,0,0,1,5.89,47.18c1.14,35.8,7.4,73.4-4.76,108.06-12.57,35.79-43.18,66.73-67.78,94.9-25.49,29.18-49.3,63.23-85.76,79.52-36.23,16.18-84.51,15-123.79,15.4a39.14,39.14,0,0,0-6.11.69c-3,.52-6.11,1.15-9.14,1.78-8.13,1.67-16.23,3.31-24.46,4.47-20.18,2.84-41.3,3-60.63-4.28-17-6.41-32.39-13.28-46.84-24.46-6.11-4.72-11.91-9.88-17.8-14.86-8.27-7-16.69-13.61-25.47-19.94-28.51-20.62-62.29-42.28-81-72.7-21-34.15-22.1-103.66-21.15-143.59a156.34,156.34,0,0,0-1.1-20.17c-.8-7.37-1.84-14.72-2.76-22.08-2.19-17.55-4.25-37.79,1.39-54.86,13.18-39.88,43.31-73.35,70.85-104.18a109.84,109.84,0,0,0,9.66-13c3.37-5.17,6.55-10.46,9.78-15.72,7.17-11.64,16.16-26.11,27.57-33.95,45.08-31,103-29.81,155.37-31.94Z" transform="translate(-355.16 -62.27)"/><path class="cls-7" d="M668,98.41c35.87-1.46,80-6.56,114.09,4.73,31.8,10.52,53.12,36.36,79.42,57.11,26,20.51,58.93,35.61,76.38,63.57,16.39,26.27,17.92,65.05,24.6,95.54a255.59,255.59,0,0,1,5.82,46.52c1.13,35.78,7.32,73.05-4.52,106.78-12.22,34.79-42.86,65.92-67.16,93.74-26.64,30.5-49.27,62.91-84.48,78.65-34.92,15.59-82.36,14.64-122.42,15-14.71.15-60.29,17.57-99,3-48.77-18.36-46.46-27.9-89.38-58.93-28.52-20.61-61.95-42.16-80.13-71.64-20.44-33.17-21.44-103.31-20.52-141.58.7-29.57-12-68.09-2.72-96.14,12.88-39,42.77-72.26,70.18-102.94,15.33-17.16,28.07-49.63,46.34-62.19C558,99.73,613.3,100.64,668,98.41Z" transform="translate(-355.16 -62.27)"/><path class="cls-8" d="M668.42,102.1c-49.65,2-107.5,3.64-150.2,33-20.15,13.85-31,40.61-47.24,58.74-26.35,29.5-54.17,65-66.77,103.08-4.94,15-2.77,34.29-.84,49.7,1.83,14.6,1.52,33.54,1.17,48.26C403.65,432,407.33,497.44,426.78,529c17.63,28.59,50.22,52.16,77.14,71.62,30.22,21.84,53,42.65,89.17,56.26,35.58,13.39,69.93.34,103.64,0,37.27-.37,78.48-2.63,112.74-17.94a111.13,111.13,0,0,0,19.15-11.05c24.25-17.25,46.12-42.19,65.6-64.51,23.32-26.7,51.43-59.16,63.3-93,11.39-32.46,7.28-70.63,6.21-104.37-.93-29.3-10.12-59-15.19-87.82-3-16.92-7.09-36.17-16.28-50.9a80.26,80.26,0,0,0-6.54-9c-11.26-13.47-26.65-23.84-41.12-33.58-9.22-6.2-18.5-12.36-27.23-19.25-18.41-14.51-35-32.39-54.69-45a100.06,100.06,0,0,0-22.66-11c-33.16-11-76.94-8.76-111.6-7.35Z" transform="translate(-355.16 -62.27)"/><path class="cls-9" d="M694.42,649.79c47.42-1.94,97.06-5,137.52-32.78,9.95-6.84,26.28-17,32.89-27s13.11-20.17,21.12-29.14c25.58-28.64,53.18-63.4,65.35-100.25,4.11-12.43,1.77-31,.16-43.86-2.13-17-1.74-35.07-1.33-52.17.82-34.34-2.42-99.73-20.43-129-16.76-27.19-49.35-50.44-75-69-29.14-21.06-53.63-42.93-87.92-55.84C735.21,99,699,111.57,666.12,111.9c-35.69.37-76.48,2.3-109.45,17a98.07,98.07,0,0,0-16.85,9.73c-24.08,17.14-45.26,41.62-64.64,63.81-22.45,25.7-50.6,57.8-62,90.28-10.76,30.67-2.29,69.31-1.27,101.41.93,29.33,6.13,59.15,11.21,88.07,2.65,15.07,6.3,33.35,14.48,46.46a67.1,67.1,0,0,0,5.39,7.39c10.43,12.47,25.43,22.4,38.84,31.42,9.85,6.63,19.74,13.21,29.07,20.57,18.48,14.57,35.27,32.76,55,45.43a86.65,86.65,0,0,0,19.55,9.56c32,10.58,75.53,8.1,109,6.73Z" transform="translate(-355.16 -62.27)"/><path class="cls-10" d="M467,217.88c35.37-10.52,43-44.59,71.05-57.73,5.89-2.75,14.84-2.2,22.72-3l-5.51-8.48c-4-6.26-12.31-8.16-22.17-1.37C509.75,163.4,477,208.5,467,217.88Zm340.65,38.95c-8.25,9.91-.37,34.08-6.34,47.57-4.58,10.37-19,10.52-19,20.39,0,7.47,16.74,7.7,23.11,7.7,18.88,0,11.58,28.77,30.81,26.27,12-1.57,3.89-27.53,17.2-32.16,5.53-1.93,12.64-12.14,13.14-18.58,1.25-16.3-30.06-18.5-39-29.44-2.53-3.12-18.1-30.39-19.93-21.75ZM522.29,192.06c-40.43,14.59-8.23,22.51,6.79,29.89,14.48,7.12,12.68,22,12.68,38.51,0,14.12,7.81,27.52,21.29,14,5.52-5.52,1.9-9.09,4.08-15.4,3.59-10.41,10.42-9.2,10.42-22.65,0-7.74-9.18-6.84-12.23-13.59-21.61-47.76-8.32-43.34-43-30.8Zm-89.7,108.26c-4.09,8-5.12,24.77,3.62,30.81,19.13,13.19,36.25,6.11,36.25-13.59,0-15.57,39.41-11.57,39.41-24.47,0-18.74-20.79-8.55-30.36-18.11-10.63-10.64-.43-30.78-7.7-38.06-18.6-18.6-37.47,56.08-41.22,63.42Zm1.35,111.89c-1.82,25.54-1,46.73,8.16,70.22,4.46,11.43,3.78,29,12.23,41.22,9.82,14.23,14.53,14.51,29.9,22.2,17.6,8.8,15.85-16.38,15.85-25.37,0-8.08,10.88-10.65,10.88-16.31,0-21.24-29.6-12.25-38.5-34-5.9-14.38-6.8-20.36-6.8-35.79,0-5.73,23-51.87-4.53-36.7-6.16,3.4-3.75,16.48-15.86,10.42-6.11-3.05-11.33-6.46-11.33,4.08ZM586.61,447.1c0,12.13-9.9,30.79-19.48,36.69-8,4.92-4.19,19.93,2.72,19.93,19.9,0,14.13,6.88,23.55,16.31,12.23,12.22,16.76-18.66,16.76-23.1,0-12.93,60.52,3.86,64.33.44,8.73-7.82,10.91-18.85-1.82-24.46-35.46-15.62-43.85-13.78-60.69-50.28-7-15.22-6-19-19-27.18-27.4-17.13-6.34,43.64-6.34,51.65ZM559,600.66c34.5,34.5,116.21,56.82,160.37,29.22,22.19-13.87-14-17.37-14-30.13,0-24.13-18.52-18.41-32.63-12.68-12.08,4.91-35.13,4.32-43.93-2.72-16.31-13-23.71-20.58-37.15.45-7.84,12.28-31.71-2.66-32.62,15.86Zm238.51-58.21c-20.38-.23-4,41.57-13.36,51.42-5.4,5.68-28.21,23.1-3.17,23.1,23.69,0,38.3-2.24,57.07-16.31,8.08-6.06,10-15.77,10-25.37,0-11.56-12.29-10.35-21.29-14-6.71-2.75-8.23-19-15.4-19-3.5,0-17.34.46-13.82.23ZM712.54,377.33c0,14.56,5.43,24.27,5.43,39.87,0,11.09-7.69,12.48-7.69,20.83,0,5.65,17.71,2.29,21.29.46,12.49-6.38,63.14,8.94,65.23.9,2.64-10.12-1.44-19.93-14-19.93-22.85,0-37.92-18.78-45.74-36.24-2.74-6.09-25.37-16.75-24.47-5.89ZM875.17,421.5c-2.27,10.23-1.81,22.44-1.81,34.2,0,12.09-30.37,30.56-1.81,37.15,17.59,4,24.5,11.3,42.12-.46,8.61-5.73,20.2-24.86,20.84-35.33.31-5.1,2.36-22.76-.9-25.37-10.27-8.21-20.61,2.16-34-4.53-4.24-2.12-8.26-5.82-13.13-7.7-7.47-2.87-6.41,1.53-11.33,2Zm40.32-171.91c-9.76,14.18-37,61.85-18.58,75.65,9,6.72,24.47,11.2,24.47,24,0,14.83-2.6,39.92,18.12,27.63,10.08-6-4.82-64.95-5.89-74.29-1.48-12.88-5.44-21.34-5.44-35.79,0-7.6-5-19-12.68-17.21ZM626,132.71c14.12,26.22,25.37,17.36,25.37,53.45,0,12.79-25.75,18.41-35.33,25.37-21.86,15.89,23.66,18.92,27.17,19.94,37.74,10.9,36.49,57.36,11.33,79.72-12.6,11.2-30.86,37.2-7.7,50.29,8.64,4.88,24.3-4.18,37.7-1.69,36.75,6.82,90.59-18.44,33.87-29.12-25.7-4.83-35.06-97.4-21.74-101.92,37.81-12.83-17.22-24.87-17.22-50.29,0-22.68,70.47-60.24,22.2-60.24-6.37,0-11.47,10.87-22.65,10.87-11.79,0-26-3.17-34.88-3.17-8,0-17.21,5.89-18.12,6.79Z" transform="translate(-355.16 -62.27)"/><path class="cls-11" d="M544,567.76c-20.58-4.82-27.72-29.39-8.52-41.28,19.54-12.09,54.43,22.91,82.14,7.25,27.53-15.56-3.14-34.88,48.92-16.91,54.21,18.71-7.57-67.13,85.75-48.92,19.67,3.83,62,7.27,66.44-15.1,10.3-51.51,3.13-19-15.71-48.31-33.2-51.65,43.39-8.82,62.21-21.14,11.79-7.72,2-26.57,18.72-26.57,16.18,0,14.5,17.54,14.5,29,0,15.87,31.4,6.32,31.4,24.77,0,22.61-40.52-6.65-56.17-6.65-21.64,0-17.38,39.71-26.57,55.56-14.86,25.62-25,33.17-5.43,59.79,40.5,55.14-68.58-13.39-76.7-1.2-12.24,18.34,8.18,50.12-29,50.12-20.39,0-50.59-27.95-74.28-11.47-21.4,14.88-15.92,19.52-48.91,3-33.63-16.8-42.86,14.14-68.79,8.07Zm183.53-352.3c13.49,31.85-9.06,29.82-9.06,61.6,0,29.19,33.72,41.43,54.35,23.55,17.86-15.48,6.27-28.85,16.91-42.28,36.86-46.46,48.74,14.5,79.12,14.5,21.18,0,34.57-34.88,22.34-52.55-19-27.47-48.08-4.91-65.82-35.63-18.79-32.52-16.26-59.78-64-59.78-18.11,0-1.14,36.23-14.5,36.23-54.43,0-39.36,7-19.32,54.36Zm-149.17-67c0,5.42,7.48,31.35,4.23,33.82-15.94,12.09-13.95,18.59-6,36.23,4.44,9.91,27.92-23,42.27-27.17,20.25-5.89,13.59-16.59,7.86-32-7.73-20.77-48.32-47.81-48.32-10.87ZM441.83,354.36c-30.93,0-21.33,45.07,19.93,26.57,37.28-16.71,28.39,36.37,28.39,56.77,0,18.95,30.26,33.09,44.68,40.47,60.86,31.1-18.2-155.43,47.72-109.92,9.1,6.28,39.47,25.8,40.46,6.64,1.35-26.05-12.24-30.17-17.52-50.73-5.34-20.87,30.2-25.66,30.2-51.94,0-29-31-44.74-41.67-15.1-17.55,48.63-6.19,76-54.35,36.84-6.29-5.1-19.5,8.75-19.93,12.08-6.92,53-32.22,48.32-77.91,48.32ZM672.53,445c-12,0-20.06-3.89-29.59-11.48-27.18-21.63-3-31.67-3-53.75,0-5.52-9-12.68,4.23-12.68,15.35,0,7.78,8.24,16.31,15.1,13.71,11,24.75-17.37,32-1.21,4.73,10.53,3,23.05,3,35.63,0,9.68,15.59,41.68-1.81,41.68-10.71,0-11.17-12.69-21.14-13.29Zm74.89-67c-2.94-2.94-10.73-11-9.66-15.1,1.27-4.9,13.29-4,13.29-11.47,0-7.29,5.59-7.25,11.47-7.25,2.48,0,6.56-.7,8.46.61,3.73,2.57,2.42,5.63,7.24,6.64,9.75,2,19.33-3.1,19.33,9.66,0,5.54-10.49,4.39-14.5,5.44-8.34,2.17,3,21.58,3,25.36,0,22.49-32.45-7.69-38.65-13.89Z" transform="translate(-355.16 -62.27)"/></svg>